<?xml version="1.0" encoding="UTF-8"?>
<svg width="512" height="512" viewBox="0 0 24 24" xmlns="http://www.w3.org/2000/svg">
  <path fill="#4a1e8c" d="M21 10.975V8a2 2 0 0 0-2-2h-6V4.5c0-.8-.7-1.5-1.5-1.5S10 3.7 10 4.5V6H4a2 2 0 0 0-2 2v2.975A3.5 3.5 0 0 0 0 14.5a3.5 3.5 0 0 0 2 3.163V19a2 2 0 0 0 2 2h6v.5c0 .8.7 1.5 1.5 1.5s1.5-.7 1.5-1.5V21h6a2 2 0 0 0 2-2v-1.337a3.5 3.5 0 0 0 2-3.163a3.5 3.5 0 0 0-2-3.525M4 8h16v2.1a3.52 3.52 0 0 0-2 0V9h-2v1.1a3.52 3.52 0 0 0-2 0V9H9v1.1a3.52 3.52 0 0 0-2 0V9H5v1.1c-.7.16-1.42.38-2 .9V8m1 11v-1h2v-2H5a1 1 0 0 1-1-1h2a3 3 0 0 0 6 0h2a1 1 0 0 1-1 1h-2v2h2v1H4m15 0h-5v-1h2v-2h-2a1 1 0 0 1-1-1h2a3 3 0 0 0 3-3a3 3 0 0 0-3-3a3 3 0 0 0-2.83 2H14a1 1 0 0 1 1-1h2V9h-2V8h5v11Z"/>
</svg>