<?xml version="1.0" encoding="UTF-8" standalone="no"?>
<!DOCTYPE svg PUBLIC "-//W3C//DTD SVG 1.1//EN" "http://www.w3.org/Graphics/SVG/1.1/DTD/svg11.dtd">
<svg width="100%" height="100%" viewBox="0 0 1024 1024" version="1.1" xmlns="http://www.w3.org/2000/svg" xmlns:xlink="http://www.w3.org/1999/xlink" xml:space="preserve" xmlns:serif="http://www.serif.com/" style="fill-rule:evenodd;clip-rule:evenodd;stroke-linejoin:round;stroke-miterlimit:2;">
    <g id="_-521d1eff" serif:id="#521d1eff">
        <path d="M180.95,170.77C191.73,160.89 206.48,155.72 221.04,156.03C329.36,155.99 437.69,156.03 546.02,156.01C558.95,155.87 572.12,159.46 582.59,167.22C596.73,177.27 605.11,194.65 604.44,211.96C603.42,246.54 603.64,281.15 602.82,315.73C583.06,321.75 563.78,329.91 546.77,341.76C536.32,349.14 526.58,357.79 519.24,368.34C512.76,377.66 508.83,388.61 507.34,399.83C506.07,411.16 506.4,422.58 506.2,433.97C505.94,463.77 506.11,493.59 505.71,523.37C502.25,509.08 497.52,494.93 489.81,482.32C472.38,452.25 441.95,430.24 408.12,422.5C386.53,417.05 363.42,418.99 342.59,426.57C327.37,432.24 312.94,440.18 300.46,450.61C271.51,474.4 253.32,511.37 254,549.04C253.41,580.84 266.99,612.18 289.36,634.6C303.56,649.35 321.29,660.64 340.64,667.34C357.35,672.76 375.13,675.93 392.71,674.19C412.57,672.1 432.13,665.94 448.9,654.96C478.19,637.16 499.46,606.67 505.55,572.9C506.06,576.24 505.94,579.63 505.79,583.01C505.77,637.35 505.83,691.69 505.84,746.03C505.92,758.37 505.3,770.88 508.12,783C511.62,797.43 519.14,810.79 529.33,821.56C534.25,826.97 539.65,831.92 544.68,837.23C441.15,837.11 337.62,837.23 234.08,837.17C224.4,836.99 214.51,837.96 205.09,835.15C182.21,829.39 163.53,808.02 163.48,784.01C162.68,728.69 163.13,673.36 163,618.04C162.97,483.02 162.92,348 162.89,212.98C162.38,197.19 169.02,181.21 180.95,170.77M277.18,216.27C274,217.8 272.18,221.55 272.4,225.01C272.76,243.34 272.8,261.67 272.87,280.01C272.8,295.02 273.07,310.07 271.75,325.04C271.37,330.9 271.41,337.69 275.74,342.21C280.47,346.99 287.22,349.53 293.91,349.58C350.93,349.59 407.95,349.14 464.97,349.39C473.5,349.15 482.83,349.3 490.13,344.18C495.29,340.62 497.29,334.06 497.2,328.04C497.16,294.72 497.11,261.4 497.07,228.08C497.44,223.49 493.93,219.43 489.51,218.61C480.82,216.78 471.87,218.03 463.07,217.79C433.03,217.48 402.97,217.87 372.94,216.75C342.99,215.96 313.03,215.93 283.07,215.83C281.11,215.9 279.08,215.69 277.18,216.27M218.46,673.62C208.37,676.99 203.86,690.28 209.74,699.12C215.06,708.66 229.67,709.64 236.92,701.91C243.77,694.58 242.64,681.46 234.39,675.63C230.01,671.9 223.67,671.92 218.46,673.62M218.35,758.23C214.57,759.25 210.92,761.58 209.27,765.26C207.43,769.38 207.38,774.5 209.75,778.43C212.16,782.7 217.2,785.11 222.02,784.99C300.03,785.01 378.04,784.99 456.05,785C461.54,785.14 467.8,781.8 468.97,776.08C469.26,771.71 469.86,766.72 466.9,763.06C464.06,759.64 459.46,757.78 455.04,757.99C378.38,757.99 301.71,757.78 225.05,757.82C222.81,757.86 220.54,757.74 218.35,758.23Z" style="fill:rgb(82,29,30);fill-rule:nonzero;"/>
        <path d="M377.33,244.14C381.65,242.3 386.48,243.25 390.9,244.18C394.58,244.91 397.6,248.1 397.87,251.89C399.27,268.9 398.92,286 398.78,303.06C398.17,308.07 398.77,314 394.85,317.83C389.95,321.71 382.94,321.35 377.29,319.53C372.12,317.3 371.31,310.99 371,306.05C370.93,288.7 370.84,271.34 370.97,253.99C370.79,249.8 373.33,245.6 377.33,244.14Z" style="fill:rgb(82,29,30);fill-rule:nonzero;"/>
        <path d="M422.12,245.19C428.27,243.68 434.66,244.23 440.94,244.09C448.28,244.22 455.94,243.33 462.95,246.02C465.41,246.89 464.78,249.99 465,252.03C464.72,264.39 466.22,276.7 466,289.06C465.93,297.34 466.13,305.63 465.9,313.9C465.34,316.64 464.65,321.04 460.96,320.75C448.4,320.56 435.72,320.92 423.28,318.92C422.58,315.66 422.03,312.35 422.05,309.01C421.98,292.35 421.71,275.69 421.45,259.03C421.4,254.41 421.26,249.75 422.12,245.19Z" style="fill:rgb(82,29,30);fill-rule:nonzero;"/>
        <path d="M679.57,325.75C707.66,323.69 736.01,324.44 763.95,328.15C784.94,331.12 805.81,335.8 825.58,343.56C843.37,350.51 860.53,360.26 873.42,374.59C881.56,383.82 888.15,395.34 888.39,407.94C888.37,419.08 882.8,429.42 875.81,437.79C865.3,449.98 851.92,459.43 837.7,466.79C807.01,481.83 772.89,488.62 739,491.02C700.15,493.75 660.77,491.14 622.9,481.85C601.47,476.35 580.42,468.34 561.95,456C552.22,449.3 543,441.32 536.93,431.04C529.73,418.71 529.03,402.95 534.94,389.97C540.72,376.95 551.62,367.04 563.23,359.21C581.98,346.96 603.4,339.51 625,334.09C642.91,329.82 661.18,326.86 679.57,325.75Z" style="fill:rgb(82,29,30);fill-rule:nonzero;"/>
        <path d="M530.92,460.83C544.04,475.15 560.79,485.64 578.29,493.78C615.07,510.76 655.83,517.06 696.03,518.51C739.94,519.85 784.68,515.64 826.05,500.11C839.92,494.79 853.4,488.25 865.55,479.66C873.92,474.08 881.25,467.13 888.36,460.05C888.2,482.69 888.52,505.33 888.3,527.96C887.64,543.43 878.4,557.11 867.36,567.35C846.99,586 820.63,596.54 794.19,603.3C767.37,610.12 739.61,612.62 711.99,612.47C691.96,612.69 671.94,611.1 652.18,607.9C629.13,604.31 606.42,597.91 585.34,587.82C570.64,580.73 556.63,571.68 545.63,559.5C537.16,550.07 530.86,537.98 530.83,525.07C530.64,503.65 531.01,482.24 530.92,460.83Z" style="fill:rgb(82,29,30);fill-rule:nonzero;"/>
        <path d="M373.31,503.33C381.28,502.39 389.56,503.04 397.12,505.87C409.4,510.46 419.67,520.51 424.05,532.94C428.19,543.98 427.52,556.69 422.33,567.27C417.06,578.53 406.9,587.44 394.99,591.08C383.37,594.73 370.22,593.46 359.65,587.33C345.77,579.6 336.22,564.06 336.73,548.03C336.43,538.03 340.02,528.08 346.22,520.27C352.87,511.63 362.81,505.94 373.31,503.33Z" style="fill:rgb(82,29,30);fill-rule:nonzero;"/>
        <path d="M530.84,578.47C541.99,592.14 556.67,602.48 572.03,610.93C607.96,629.86 648.56,638.56 688.92,640.44C726.15,642.32 763.9,639.85 799.96,629.94C816.88,625.53 833.33,619.2 848.66,610.76C863.27,602.67 877.54,593.16 887.92,579.84C888.03,599.9 887.98,619.96 888,640.02C888.29,651.32 885.61,662.86 879.5,672.45C872.5,683.56 862.34,692.29 851.51,699.52C839.07,707.63 825.44,713.77 811.44,718.64C801.16,722.16 790.72,725.37 779.99,727.2C749.04,732.96 717.4,734.33 686,732.69C665.93,731.31 645.96,728.32 626.43,723.48C606.65,718.29 587.07,711.34 569.8,700.21C558.04,692.66 547.02,683.47 539.24,671.74C533.78,663.56 530.83,653.8 530.77,643.97C530.76,622.13 530.76,600.3 530.84,578.47Z" style="fill:rgb(82,29,30);fill-rule:nonzero;"/>
        <path d="M530.96,699.88C541.54,711.66 554.29,721.43 568.33,728.75C599.74,745.52 634.78,754.77 670.07,758.51C702.79,761.96 735.98,761.37 768.49,756.32C796.83,751.97 824.77,743.62 849.97,729.77C864.02,721.95 877.41,712.52 888.07,700.37C887.99,722.59 888.01,744.81 888.02,767.04C888.03,778.16 883.45,788.91 876.62,797.55C866.07,811.02 851.52,820.71 836.34,828.26C815.84,838.46 793.65,844.93 771.12,848.76C740.38,854.07 708.93,855.36 677.86,852.49C650.65,850.11 623.48,844.92 597.99,834.92C581.02,828.18 564.5,819.54 550.95,807.14C542.62,799.5 535.45,790.11 532.3,779.13C529.87,770.99 530.55,762.41 530.48,754.05C530.66,735.99 530.5,717.93 530.96,699.88Z" style="fill:rgb(82,29,30);fill-rule:nonzero;"/>
    </g>
</svg>
