<?xml version="1.0" encoding="UTF-8" standalone="no"?>
<!DOCTYPE svg PUBLIC "-//W3C//DTD SVG 1.1//EN" "http://www.w3.org/Graphics/SVG/1.1/DTD/svg11.dtd">
<svg width="100%" height="100%" viewBox="0 0 1024 1024" version="1.1" xmlns="http://www.w3.org/2000/svg" xmlns:xlink="http://www.w3.org/1999/xlink" xml:space="preserve" xmlns:serif="http://www.serif.com/" style="fill-rule:evenodd;clip-rule:evenodd;stroke-linejoin:round;stroke-miterlimit:2;">
    <g id="_-511f1eff" serif:id="#511f1eff">
        <path d="M400.13,160.13C409.27,158.03 418.7,158.7 428,158.55C554.66,158.55 681.33,158.53 807.99,158.57C827.1,158.29 846.24,164.84 861.12,176.84C879.29,191.22 890.57,213.79 891,236.95L891,487.02C890.64,518.92 871.75,549.51 843.96,564.93C829.78,573.41 813.13,577.05 796.71,577.01C796.71,602.69 796.97,628.36 797,654.04C797.18,658.39 796.47,663.1 793.66,666.58C791.06,669.55 786.82,669.38 783.29,668.75C777.46,666.8 773.46,661.93 769.22,657.78C749.87,638.13 730.28,618.71 710.75,599.25C706.72,595.23 702.89,590.47 697.19,588.81C693.57,587.85 689.81,587.38 686.09,587.03C667.77,586.89 649.44,587.15 631.12,586.91C631.04,558.61 631.75,530.3 631.42,502C631.1,472.68 631.08,443.35 630.35,414.03C630.6,408.64 629.19,402.69 624.62,399.35C619.4,395.67 612.77,397.64 606.9,396.58C599.65,395.45 592.28,396.47 585.01,395.64C573.36,394.54 561.65,395.24 549.98,394.91C541.67,394.66 533.34,394.29 525.04,394.84C519.52,395.23 513.94,394.6 508.48,395.69C495.64,396.43 482.83,398.07 470.12,400.13C448.3,404.46 427.2,412.38 407.97,423.58C403.05,418.64 398.79,413.06 393.64,408.34C376.82,392.48 357.58,379.2 337.04,368.66C336.49,365.13 336.79,361.55 336.76,358C336.77,318.66 336.79,279.33 336.73,239.99C335.99,220.45 343.95,201.24 356.45,186.45C367.62,173.19 383.32,164.09 400.13,160.13M435.4,250.46C428.52,252.39 422.93,258.74 422.69,265.99C422.11,273.97 428.46,281.37 436.12,282.95C442.4,283.46 448.71,283.15 455.01,283.23C565.67,283.22 676.33,283.27 786.99,283.19C793.08,283.66 799.29,280.66 802.53,275.45C805.9,270.43 805.92,263.41 802.7,258.32C799.78,253.62 794.44,250.71 789.05,250.01C672.68,249.98 556.31,250.01 439.95,250C438.42,250.02 436.84,249.87 435.4,250.46M434.42,332.52C429.66,334.17 425.41,337.7 423.51,342.44C420.76,348.55 422.48,356.16 427.31,360.73C431.21,364.41 436.67,365.91 441.95,365.75C557.97,365.92 674,365.8 790.02,365.81C794.88,365.54 799.97,364.04 803.35,360.35C808.42,355.69 809.65,347.63 806.5,341.57C803.75,335.32 796.75,331.48 790.03,331.97C673,331.94 555.97,331.97 438.94,332C437.42,332.01 435.84,331.88 434.42,332.52M684.38,415.38C679.29,417.17 675.3,421.52 673.67,426.63C670.24,436.55 678.42,448.53 689,448.53C723,448.54 757,448.5 790.99,448.56C799.89,448.35 807.76,439.95 807.02,431C807.06,422.13 798.82,414.42 790.02,414.73C757.01,414.69 724.01,414.72 691.01,414.71C688.79,414.79 686.5,414.67 684.38,415.38Z" style="fill:rgb(81,31,30);fill-rule:nonzero;"/>
        <path d="M134.21,351.17C138.2,347 144.4,347.66 149.57,348.51C170.09,351.3 190.61,354.18 211.07,357.47C223.94,359.05 236.6,361.94 249.24,364.77C274.56,371.19 299.8,378.77 323.08,390.82C343.56,401.35 363.16,414.13 379.33,430.66C382.82,434.28 386.46,437.87 389.11,442.17C389.25,495.77 389.02,549.4 389.35,603.01C389.82,651.34 390.09,699.67 390,748C389.97,769.68 389.96,791.35 390.49,813.02C394.11,812.32 397.04,809.91 400.23,808.22C416.25,798.76 433.73,792.14 451.32,786.26C476.1,778.03 501.89,772.46 528.03,771.55C546.04,771.21 564.06,771.35 582.05,772.28C598.39,773.97 614.74,775.38 631.11,776.92C631.34,793.62 631.04,810.33 631.16,827.04C631.47,834.12 626.39,840.68 619.8,842.9C615.72,844.32 611.36,843.29 607.22,842.79C599.79,841.11 592.47,839 585.15,836.9C562.72,831.43 539.89,827.77 516.98,825.01C500.76,822.95 484.37,822.24 468.03,822.86C450.43,823.12 432.86,825.82 416.03,831.01C408.52,832.99 401.36,836.09 393.83,837.95C387.25,837.3 381.2,833.95 376.15,829.82C363.42,819.52 352.01,807.3 337.36,799.61C308.97,784.26 277.49,775.72 246.08,769.11C232.25,765.98 218.19,764.15 204.21,761.92C186.94,759.17 169.44,758.7 152,758C145.57,757.99 137.74,758.07 133.27,752.63C129.83,748.51 130.92,742.92 130.83,738C130.88,614.33 130.85,490.66 130.85,366.99C130.92,361.64 129.72,355.18 134.21,351.17M244.4,472.45C242.05,478.61 245.47,484.86 248.62,490.03C233.99,531.95 218.59,573.63 201.77,614.73C201.04,617.78 197.63,618.03 195.26,619.21C188.24,622 183.93,630.87 187.01,637.95C188.25,642.03 191.71,645.2 195.86,646.14C205.35,648.59 215.08,650.02 224.6,652.34C227.98,653.28 231.53,653.09 234.99,652.9C238.59,652.17 242.3,649.71 243,645.88C243.67,640.5 243.09,634.65 239.81,630.15C237.89,627.2 234.53,625.85 231.75,623.91C233.99,616.07 236.39,608.14 240.06,600.84C245.17,600.8 250.13,602.19 255.15,602.97C269.63,605.8 284.12,608.57 298.61,611.33C300.49,611.54 301.99,612.86 302.23,614.79C303.92,622.46 305.89,630.09 307.13,637.86C303.1,640.44 298.14,642.35 295.97,646.95C292.03,653.9 296.18,663.86 303.9,665.94C315.9,668.79 327.99,671.24 340.09,673.64C343.47,674.58 346.93,673.3 350.02,671.95C354.25,669.97 355.59,664.64 354.42,660.42C353.26,655.16 349.98,650.56 345.83,647.22C343.75,645.29 340.95,643.72 340.13,640.82C325.88,588.76 312.26,536.53 297.32,484.67C295.92,479.97 293.78,475.25 289.85,472.14C286.09,468.88 280.96,468.38 276.27,467.59C269.81,466.59 263.43,465.18 256.98,464.17C251.43,463.07 245.85,467.14 244.4,472.45Z" style="fill:rgb(81,31,30);fill-rule:nonzero;"/>
        <path d="M472.27,494.2C474.15,493.83 476.09,493.84 478.01,493.79C508.01,493.84 538.02,493.81 568.03,493.84C575.07,493.45 581.22,500.06 581.11,506.96C581.42,513.27 581.18,520.63 576.28,525.3C572.48,528.8 567.14,530.37 562.03,530.01C531.35,530 500.67,529.99 470,530.01C463.83,529.5 459.07,524.2 457.72,518.38C454.58,508.13 461.79,496.31 472.27,494.2Z" style="fill:rgb(81,31,30);fill-rule:nonzero;"/>
        <path d="M273.21,512.92C274.19,513.55 275.29,514.16 275.49,515.44C280.34,533.91 285.08,552.41 290.27,570.79C290.97,573.14 291.84,575.47 291.98,577.95C287.55,578.38 283.32,576.69 279,576.03C270.38,574.15 261.6,573.01 253.09,570.7C252.49,567.84 253.5,565.01 254.28,562.3C259.33,547.04 265.22,532.07 271.05,517.1C271.62,515.63 272.42,514.27 273.21,512.92Z" style="fill:rgb(81,31,30);fill-rule:nonzero;"/>
        <path d="M472.4,568.43C475.51,567.55 478.79,567.82 482,567.78C510.68,567.83 539.35,567.76 568.03,567.78C574.43,567.66 580.22,572.91 580.88,579.26C581.21,584.98 581.21,590.89 579.39,596.38C577.26,602.08 570.91,605.3 565.05,605.01C535.37,604.99 505.69,605.01 476,605C472.99,604.91 469.83,605.44 467.03,604.04C461.02,602.08 457.92,595.73 457.08,589.86C456.07,580.28 463.05,570.67 472.4,568.43Z" style="fill:rgb(81,31,30);fill-rule:nonzero;"/>
        <path d="M472.38,643.52C473.86,643.09 475.4,642.93 476.95,642.9C506.98,642.91 537.01,642.96 567.05,642.88C574.31,642.38 580.37,649.13 580.99,656C580.86,661.34 581.86,667.13 579,671.97C575.67,677.86 568.41,679.97 562.06,680.01C532.02,679.98 501.99,680.01 471.95,679.99C467.45,679.65 462.74,677.63 460.25,673.7C457.34,669.03 456,663.13 457.79,657.79C459.58,650.83 465.35,645.12 472.38,643.52Z" style="fill:rgb(81,31,30);fill-rule:nonzero;"/>
    </g>
</svg>
