<?xml version="1.0" encoding="UTF-8" standalone="no"?>
<!DOCTYPE svg PUBLIC "-//W3C//DTD SVG 1.1//EN" "http://www.w3.org/Graphics/SVG/1.1/DTD/svg11.dtd">
<svg width="100%" height="100%" viewBox="0 0 203 221" version="1.1" xmlns="http://www.w3.org/2000/svg" xmlns:xlink="http://www.w3.org/1999/xlink" xml:space="preserve" xmlns:serif="http://www.serif.com/" style="fill-rule:evenodd;clip-rule:evenodd;stroke-linejoin:round;stroke-miterlimit:2;">
    <g id="_-edc98dff" serif:id="#edc98dff">
    </g>
    <g id="_-f3e7d6ff" serif:id="#f3e7d6ff">
        <path d="M88.4,7.42C94.89,6.5 101.46,7.26 107.99,6.98C114.79,6.63 121.37,8.68 127.89,10.28C155.51,18.7 177.87,40.98 188.35,67.64C192.62,77.56 194.87,88.29 196.02,99C195.93,111.84 197.08,124.93 193.41,137.42C189.09,157.12 178.63,175.27 164.26,189.36C152.03,200.61 137.13,209.45 120.64,212.53C111.3,215.21 101.51,213.57 91.96,213.99C78.18,212.4 64.56,207.8 53.11,199.84C31.2,185.58 15.98,162.04 10.38,136.65C6.99,124.71 8.15,112.22 7.96,99.97C10.07,72.8 22.69,46.3 43.45,28.46C56.17,17.51 71.8,10.04 88.4,7.42M98.19,22.5C92.45,21.29 87,18.02 80.96,18.75C76.03,19.61 73.67,24.69 72.13,28.91C68.66,39.36 66.52,50.18 63.81,60.83C53.96,63.22 43.9,64.94 34.29,68.24C31.91,69.32 28.6,70.17 27.92,73.08C28.14,76.08 31.46,77.11 33.75,78.22C42.59,81.58 52.02,82.95 61.33,84.29C61.79,89.66 62.65,95.12 64.99,100.01C65.73,101.93 67.76,102.34 69.54,102.75C69.98,106.06 70.58,109.35 71.32,112.6C58.72,118.31 47.46,126.84 37.91,136.8C42.38,140.26 46.92,143.64 50.97,147.58C41.27,151.67 31.69,156.06 22.37,160.96C26.98,169.55 32.52,177.79 39.59,184.56C43,186.94 47.25,187.65 51.08,189.13C85.91,200.54 124.43,200.64 159.26,189.28C170.4,180.2 178.62,167.89 184.58,154.89C174.02,150.06 162.92,146.57 151.94,142.85C157.84,135.49 165.2,129.52 172.24,123.3C160.21,116.23 146.83,111.48 133.01,109.5C133.11,108.03 133.21,106.56 133.31,105.1C140.19,101.97 141.23,93.15 141.55,86.47C151.3,82.96 162.35,80.47 169.42,72.3C171.82,69.55 170.67,65.24 167.44,63.71C158.09,58.51 147.05,58.08 136.76,56.41C134.66,47.09 132.71,37.68 129.29,28.74C127.45,24.13 124.42,19.06 119.09,18.17C111.6,16.56 105.63,23.91 98.19,22.5Z" style="fill:rgb(243,231,214);fill-rule:nonzero;"/>
        <path d="M102.04,77.09C110.04,75.84 118.17,76.23 126.23,75.92C128.44,80.36 130.17,85 131.67,89.72C133.14,86.69 134.69,83.67 136.92,81.12C137.73,82.27 138.89,83.37 138.78,84.92C139.17,90.7 139.04,97.28 134.81,101.77C133.62,101.91 132.42,102.06 131.23,102.21C130.03,108.99 129.94,116.59 125.06,121.99C120.47,127.22 115.19,132.95 107.95,134.05C102.99,135.04 97.2,134.32 93.57,130.47C89.93,126.33 87.7,121 87.01,115.54C92.14,115.61 97.2,114.05 101.23,110.83C107.1,115.1 116.45,117.93 122.05,111.74C115.41,111.59 112.41,104.85 106.7,102.7C106.89,101.91 107.29,100.34 107.49,99.55C104.2,98.74 100.75,102.04 98.03,99.14C98.59,93.42 99.27,87.7 99.23,81.94C99.15,80.01 99.53,77.1 102.04,77.09M97.09,119.27L96.27,120.03C98.18,122.01 101.16,123.29 103.85,122.17C104.81,121.46 107.07,120.84 105.72,119.39C103,118.42 99.83,118.38 97.09,119.27Z" style="fill:rgb(243,231,214);fill-rule:nonzero;"/>
        <path d="M109.71,140.74C116.91,135.57 122.05,128.25 127.92,121.74C127.17,127.8 126.98,134.32 123.48,139.57C115.67,152.51 102.69,161.1 94.05,173.41C88.55,163.36 80.38,154.42 77.99,142.93C82.9,150.46 88.23,157.8 94.52,164.22C96.81,158.81 98.51,153.19 99.66,147.44C102.73,144.85 106.6,143.33 109.71,140.74Z" style="fill:rgb(243,231,214);fill-rule:nonzero;"/>
    </g>
    <g id="_-471d1eff" serif:id="#471d1eff">
        <path d="M98.19,22.5C105.63,23.91 111.6,16.56 119.09,18.17C124.42,19.06 127.45,24.13 129.29,28.74C132.71,37.68 134.66,47.09 136.76,56.41C147.05,58.08 158.09,58.51 167.44,63.71C170.67,65.24 171.82,69.55 169.42,72.3C162.35,80.47 151.3,82.96 141.55,86.47C141.23,93.15 140.19,101.97 133.31,105.1C133.21,106.56 133.11,108.03 133.01,109.5C146.83,111.48 160.21,116.23 172.24,123.3C165.2,129.52 157.84,135.49 151.94,142.85C162.92,146.57 174.02,150.06 184.58,154.89C178.62,167.89 170.4,180.2 159.26,189.28C124.43,200.64 85.91,200.54 51.08,189.13C47.25,187.65 43,186.94 39.59,184.56C32.52,177.79 26.98,169.55 22.37,160.96C31.69,156.06 41.27,151.67 50.97,147.58C46.92,143.64 42.38,140.26 37.91,136.8C47.46,126.84 58.72,118.31 71.32,112.6C70.58,109.35 69.98,106.06 69.54,102.75C67.76,102.34 65.73,101.93 64.99,100.01C62.65,95.12 61.79,89.66 61.33,84.29C52.02,82.95 42.59,81.58 33.75,78.22C31.46,77.11 28.14,76.08 27.92,73.08C28.6,70.17 31.91,69.32 34.29,68.24C43.9,64.94 53.96,63.22 63.81,60.83C66.52,50.18 68.66,39.36 72.13,28.91C73.67,24.69 76.03,19.61 80.96,18.75C87,18.02 92.45,21.29 98.19,22.5M102.04,77.09C99.53,77.1 99.15,80.01 99.23,81.94C99.27,87.7 98.59,93.42 98.03,99.14C100.75,102.04 104.2,98.74 107.49,99.55C107.29,100.34 106.89,101.91 106.7,102.7C112.41,104.85 115.41,111.59 122.05,111.74C116.45,117.93 107.1,115.1 101.23,110.83C97.2,114.05 92.14,115.61 87.01,115.54C87.7,121 89.93,126.33 93.57,130.47C97.2,134.32 102.99,135.04 107.95,134.05C115.19,132.95 120.47,127.22 125.06,121.99C129.94,116.59 130.03,108.99 131.23,102.21C132.42,102.06 133.62,101.91 134.81,101.77C139.04,97.28 139.17,90.7 138.78,84.92C138.89,83.37 137.73,82.27 136.92,81.12C134.69,83.67 133.14,86.69 131.67,89.72C130.17,85 128.44,80.36 126.23,75.92C118.17,76.23 110.04,75.84 102.04,77.09M109.71,140.74C106.6,143.33 102.73,144.85 99.66,147.44C98.51,153.19 96.81,158.81 94.52,164.22C88.23,157.8 82.9,150.46 77.99,142.93C80.38,154.42 88.55,163.36 94.05,173.41C102.69,161.1 115.67,152.51 123.48,139.57C126.98,134.32 127.17,127.8 127.92,121.74C122.05,128.25 116.91,135.57 109.71,140.74Z" style="fill:rgb(71,29,30);fill-rule:nonzero;"/>
        <path d="M97.09,119.27C99.83,118.38 103,118.42 105.72,119.39C107.07,120.84 104.81,121.46 103.85,122.17C101.16,123.29 98.18,122.01 96.27,120.03L97.09,119.27Z" style="fill:rgb(71,29,30);fill-rule:nonzero;"/>
    </g>
</svg>
