<?xml version="1.0" encoding="UTF-8" ?>
<!DOCTYPE svg PUBLIC "-//W3C//DTD SVG 1.1//EN" "http://www.w3.org/Graphics/SVG/1.1/DTD/svg11.dtd">
<svg width="1024pt" height="1024pt" viewBox="0 0 1024 1024" version="1.1" xmlns="http://www.w3.org/2000/svg">
<g id="#f0e7d7ff">
<path fill="#f0e7d7" opacity="1.00" d=" M 0.00 0.00 L 1024.00 0.00 L 1024.00 1024.00 L 0.00 1024.00 L 0.00 0.00 M 547.05 61.99 C 531.57 66.76 517.69 77.00 501.07 77.70 C 487.65 78.08 475.05 72.73 462.57 68.49 C 449.81 64.28 436.59 60.16 422.99 61.02 C 415.13 61.79 407.56 65.37 402.05 71.05 C 393.69 79.53 388.79 90.64 384.59 101.60 C 377.78 120.39 373.04 139.83 368.08 159.16 C 361.83 183.99 355.89 208.89 349.95 233.78 C 318.67 240.58 287.31 247.16 256.33 255.29 C 242.12 259.41 227.54 263.15 214.59 270.54 C 210.14 273.29 205.28 276.72 203.89 282.06 C 202.63 286.46 205.12 290.85 208.34 293.70 C 214.71 299.20 222.50 302.70 230.27 305.75 C 249.16 312.81 268.89 317.27 288.61 321.33 C 305.63 324.53 322.75 327.34 339.98 329.09 C 340.63 344.68 343.40 360.16 347.93 375.10 C 350.45 383.28 352.67 391.98 358.38 398.62 C 362.21 403.01 368.20 404.75 373.88 404.35 C 373.98 406.71 374.01 409.09 374.43 411.43 C 376.15 422.72 377.97 434.06 381.05 445.08 C 376.45 447.10 371.89 449.21 367.35 451.34 C 331.83 468.13 300.63 492.49 270.86 517.81 C 261.63 525.99 252.17 534.14 244.69 544.00 C 262.97 557.94 281.21 572.01 298.11 587.62 C 285.74 592.47 273.72 598.16 261.55 603.49 C 238.53 613.98 215.45 624.37 193.01 636.07 C 184.28 640.71 175.26 645.14 167.80 651.76 C 155.87 662.10 148.21 676.33 142.62 690.88 C 157.12 699.24 172.11 706.70 187.26 713.80 C 226.78 732.02 267.28 748.28 308.89 761.11 C 370.18 779.98 433.99 790.52 498.00 793.00 C 515.03 792.95 532.08 793.34 549.10 792.75 C 629.90 788.53 710.35 772.25 785.84 742.78 C 824.61 727.58 862.53 709.90 898.99 689.91 C 895.50 678.31 891.56 666.80 886.18 655.92 C 880.78 644.71 873.02 634.32 862.32 627.68 C 850.37 620.38 837.42 614.94 824.56 609.50 C 786.98 593.59 748.16 580.95 709.39 568.34 C 734.51 539.21 763.47 513.73 792.75 488.91 C 789.77 486.96 786.69 485.18 783.60 483.44 C 747.74 463.42 709.20 447.99 669.08 439.03 C 656.77 436.19 644.30 434.14 631.87 431.99 C 633.07 425.88 633.94 419.68 634.19 413.45 C 642.48 411.60 649.28 405.61 653.13 398.16 C 663.05 379.83 668.09 358.90 667.87 338.08 C 689.37 330.76 711.22 324.32 731.94 314.91 C 749.05 307.15 765.83 297.61 778.75 283.72 C 784.26 277.76 788.60 269.63 786.66 261.31 C 784.33 252.09 775.92 246.27 768.00 242.04 C 752.24 234.15 735.02 229.81 717.90 226.01 C 695.00 221.17 671.72 217.87 648.35 216.81 C 643.74 193.92 638.29 171.20 632.35 148.62 C 627.23 129.86 621.98 110.98 613.51 93.40 C 607.90 82.13 600.85 70.79 589.69 64.28 C 576.93 56.43 560.80 57.58 547.05 61.99 M 276.66 839.64 C 268.09 850.80 265.41 865.23 264.54 878.96 C 263.43 889.10 264.16 899.33 265.60 909.39 C 266.96 917.91 269.42 926.44 274.33 933.64 C 276.09 936.14 277.93 938.79 280.64 940.34 C 285.05 944.46 291.07 946.39 296.96 947.04 C 305.15 947.75 313.83 947.17 321.26 943.38 C 323.48 942.82 326.12 940.90 325.84 938.35 C 326.16 933.22 325.88 928.08 326.22 922.96 C 326.23 920.07 326.73 917.10 326.01 914.27 C 323.75 912.47 320.66 913.15 318.00 913.00 C 317.91 913.69 317.72 915.07 317.63 915.76 C 315.81 921.23 315.07 927.50 310.75 931.74 C 306.11 935.64 298.20 935.59 294.16 930.82 C 290.67 926.94 289.68 921.66 288.15 916.85 C 285.78 901.33 285.27 885.51 286.72 869.88 C 287.29 861.06 289.04 852.17 293.29 844.34 C 296.48 841.42 300.67 838.21 305.25 839.78 C 310.25 841.08 312.60 846.00 315.05 850.05 C 315.31 853.41 316.57 856.63 317.23 859.94 C 320.19 860.06 323.19 859.92 326.03 859.01 C 326.25 849.80 326.09 840.58 325.88 831.38 C 324.59 830.89 323.31 830.29 321.94 830.14 C 315.30 829.36 308.75 827.51 302.01 828.00 C 292.32 827.38 282.50 831.88 276.66 839.64 M 93.80 830.00 C 93.77 831.98 92.66 834.83 94.88 836.05 C 97.15 837.46 99.29 839.38 99.77 842.16 C 100.73 849.06 100.38 856.05 100.43 863.00 C 100.39 883.65 100.59 904.30 100.35 924.95 C 100.35 930.01 100.00 936.51 94.41 938.60 C 93.01 940.48 93.78 942.85 93.98 944.98 C 105.01 945.01 116.04 945.02 127.07 944.97 C 127.37 942.90 127.54 940.80 127.17 938.74 C 123.80 937.56 121.27 934.63 121.11 930.99 C 120.65 918.04 120.82 905.08 120.83 892.13 C 129.22 892.13 137.61 892.32 146.00 892.07 C 145.99 904.40 146.02 916.73 145.99 929.06 C 146.04 933.02 144.05 937.35 140.00 938.54 C 138.17 940.42 138.25 945.86 141.99 944.99 C 152.25 944.89 162.52 945.24 172.78 944.79 C 172.83 942.68 173.52 940.36 172.20 938.50 C 169.83 937.83 168.37 935.76 166.83 934.01 C 166.87 930.66 166.11 927.36 166.20 924.02 C 166.12 900.01 166.18 876.00 166.18 852.00 C 166.14 848.01 166.57 844.05 167.14 840.11 C 168.60 837.81 170.97 836.43 173.24 835.06 C 172.64 833.33 173.77 829.69 170.92 830.07 C 160.37 829.99 149.81 829.86 139.27 830.16 C 139.13 831.79 139.00 833.44 138.84 835.10 C 140.70 836.62 143.43 837.28 144.51 839.61 C 145.53 841.90 146.03 844.42 146.00 846.93 C 146.00 858.00 146.00 869.07 146.00 880.14 C 137.62 880.03 129.23 880.04 120.85 880.09 C 120.85 868.04 120.73 855.98 121.04 843.93 C 121.05 840.55 123.12 837.60 126.10 836.14 C 128.66 835.07 127.49 832.00 127.08 830.00 C 115.98 830.00 104.89 830.00 93.80 830.00 M 182.07 835.81 C 182.52 835.90 183.43 836.09 183.88 836.18 C 187.96 838.06 189.00 842.85 189.00 846.93 C 189.01 868.62 189.00 890.31 189.00 912.00 C 188.89 920.23 189.20 929.10 193.74 936.28 C 198.21 943.42 206.85 946.70 214.96 947.08 C 222.23 947.36 229.80 947.57 236.62 944.65 C 243.02 941.97 248.33 936.15 249.58 929.24 C 251.24 924.33 251.04 919.10 251.13 914.00 C 251.14 894.65 251.10 875.31 251.12 855.97 C 250.94 851.31 251.86 846.71 251.91 842.08 C 253.40 840.06 254.70 837.76 256.98 836.52 C 258.57 834.94 259.03 829.90 255.94 830.05 C 247.26 829.94 238.59 830.03 229.91 830.00 C 229.58 831.75 229.42 833.53 229.36 835.33 C 229.87 835.61 230.90 836.19 231.41 836.48 C 232.57 837.14 233.74 837.81 234.93 838.45 C 236.31 842.13 237.04 846.03 236.99 849.98 C 237.00 871.33 237.02 892.68 236.98 914.03 C 237.07 918.44 235.89 922.72 235.14 927.03 C 233.14 929.77 230.74 932.16 228.04 934.22 C 224.34 934.74 220.66 934.75 216.97 934.19 C 215.38 932.69 213.61 931.37 212.30 929.62 C 210.72 927.16 210.19 924.23 209.26 921.51 C 208.79 909.35 209.08 897.17 209.00 885.00 C 209.07 871.73 208.82 858.46 209.19 845.20 C 209.83 843.18 210.10 841.00 211.21 839.18 C 212.46 837.75 214.10 836.76 215.48 835.48 C 216.24 834.14 215.90 832.51 216.15 831.07 L 215.65 831.04 C 215.22 830.80 214.38 830.31 213.96 830.06 C 204.00 829.95 194.03 829.97 184.07 830.05 C 180.97 829.97 182.23 833.88 182.07 835.81 M 336.94 830.05 C 336.80 832.26 335.97 834.95 338.04 836.56 C 342.61 838.32 343.27 843.75 343.16 848.02 C 343.45 872.01 343.20 896.00 343.28 920.00 C 343.15 925.30 343.56 930.79 341.74 935.88 C 340.24 937.09 338.64 938.16 337.13 939.37 C 336.41 941.11 337.05 943.05 337.09 944.88 C 346.40 945.15 355.73 944.92 365.04 945.00 C 366.53 944.87 368.17 945.25 369.56 944.54 C 370.44 941.91 370.66 938.27 367.26 937.60 C 365.08 935.56 363.93 932.82 363.41 929.93 C 362.87 922.61 363.04 915.28 363.05 907.95 C 362.78 904.64 365.27 902.11 366.29 899.16 C 367.29 898.04 368.13 896.79 369.04 895.61 C 374.11 906.82 378.71 918.23 383.37 929.61 C 384.35 931.91 385.10 934.33 385.18 936.87 C 384.14 937.39 383.10 937.95 382.05 938.46 C 379.82 939.97 380.74 942.72 380.92 944.94 C 392.60 945.03 404.28 945.06 415.96 944.92 L 416.06 943.95 L 416.86 943.75 C 416.89 942.22 416.92 940.69 416.93 939.18 C 413.69 937.54 409.83 936.37 407.90 933.02 C 404.81 927.81 403.06 921.94 400.60 916.43 C 395.02 902.47 388.62 888.84 383.07 874.87 C 384.10 871.36 386.52 868.43 388.17 865.19 C 392.89 857.32 397.13 849.11 402.81 841.86 C 404.90 838.97 408.32 837.70 411.20 835.81 C 411.92 833.93 411.39 831.91 411.19 830.00 C 401.08 830.00 390.97 830.00 380.87 830.00 C 380.54 831.74 380.36 833.51 380.30 835.29 C 382.07 836.22 384.34 836.79 385.30 838.74 C 386.68 840.58 385.13 842.74 384.48 844.55 C 378.34 857.17 370.87 869.10 363.73 881.16 L 362.87 881.44 C 363.51 867.97 362.29 854.39 363.75 840.99 C 365.33 839.32 366.83 837.50 368.88 836.39 C 370.55 834.91 370.62 831.44 368.78 830.11 C 358.17 829.89 347.55 830.00 336.94 830.05 M 424.20 830.05 C 422.25 831.02 422.90 833.87 423.31 835.57 C 425.38 837.16 427.93 838.61 428.57 841.38 C 429.51 845.16 429.34 849.13 429.47 853.00 C 429.45 876.67 429.61 900.33 429.42 923.99 C 429.20 927.43 429.50 931.05 428.29 934.35 C 427.45 936.77 424.99 937.92 423.00 939.25 C 423.29 941.13 422.12 943.79 424.19 944.96 C 443.48 945.06 462.77 944.96 482.06 945.01 C 483.50 940.47 482.51 935.65 482.69 930.99 C 482.43 925.56 483.12 920.05 482.34 914.69 C 480.34 912.45 476.72 913.15 473.99 912.96 C 472.18 919.19 471.04 926.39 465.70 930.72 C 461.16 934.04 455.19 934.03 449.82 934.00 C 449.90 904.65 449.61 875.30 449.96 845.96 C 449.83 842.63 450.66 838.62 453.90 836.96 C 454.98 836.07 457.30 835.78 457.04 833.95 C 456.83 832.71 457.63 830.28 455.82 830.07 C 445.28 829.94 434.73 829.98 424.20 830.05 M 491.92 830.00 C 491.73 831.62 491.48 833.26 491.56 834.92 C 493.34 836.70 495.40 838.19 497.14 840.03 C 497.00 843.34 497.87 846.62 497.77 849.95 C 497.89 873.63 497.79 897.31 497.83 921.00 C 497.77 925.23 497.98 929.56 496.83 933.69 C 496.20 936.30 493.55 937.43 491.80 939.18 C 491.59 941.07 491.93 942.97 492.16 944.87 C 510.76 945.16 529.38 944.93 547.99 944.98 C 549.39 945.29 550.87 944.35 550.88 942.85 C 551.08 939.30 551.26 935.73 551.16 932.18 C 552.09 927.17 551.84 922.05 552.00 916.99 C 551.07 916.65 550.13 916.36 549.19 916.12 C 547.36 916.24 544.95 914.97 543.50 916.34 C 542.31 919.52 541.18 922.73 539.74 925.81 C 537.07 928.48 534.56 931.58 530.91 932.94 C 526.84 934.72 522.30 933.75 518.00 934.00 C 518.07 920.00 517.85 906.00 518.11 892.01 C 523.21 891.88 529.43 891.27 532.72 896.11 C 532.87 896.83 533.17 898.27 533.32 898.99 C 535.60 899.06 537.95 899.09 540.05 898.05 C 540.08 892.02 540.03 885.98 540.20 879.95 C 540.06 878.43 540.51 876.71 539.61 875.39 C 537.82 874.71 535.88 874.66 534.02 874.40 C 532.95 876.71 532.06 879.42 529.63 880.68 C 525.84 881.69 521.87 881.31 518.00 881.32 C 518.00 867.87 518.00 854.43 518.00 840.98 C 522.52 841.10 527.38 840.20 531.52 842.52 C 537.49 845.45 540.75 851.77 542.19 858.00 C 545.12 857.94 548.91 858.49 550.95 855.91 C 550.82 847.28 550.69 838.63 550.07 830.03 C 530.69 829.97 511.30 830.02 491.92 830.00 M 562.06 830.07 C 561.98 831.93 561.99 833.80 562.00 835.67 C 565.83 837.10 568.00 840.96 567.98 844.94 C 568.01 872.98 568.03 901.02 567.97 929.06 C 568.04 933.25 565.65 937.01 561.93 938.88 C 562.27 940.86 561.28 943.52 563.21 944.91 C 576.57 944.95 589.97 945.26 603.31 944.74 C 611.31 944.30 619.13 940.32 623.66 933.61 C 631.48 922.66 632.48 906.62 624.64 895.42 C 620.93 889.97 614.97 886.90 608.92 884.77 C 617.79 881.62 625.57 873.98 626.73 864.34 C 627.37 860.46 627.42 856.49 626.79 852.61 C 625.92 846.33 622.70 840.25 617.73 836.24 C 612.80 832.17 606.35 830.44 600.08 830.02 C 587.41 830.02 574.73 829.92 562.06 830.07 M 637.43 830.44 C 636.81 832.07 637.07 833.85 637.05 835.56 C 639.50 836.80 642.01 838.54 642.72 841.38 C 643.68 845.50 643.65 849.78 643.73 854.00 C 643.78 876.67 643.75 899.33 643.76 922.00 C 643.63 926.13 643.78 930.40 642.48 934.38 C 641.61 936.85 639.05 937.96 636.98 939.25 C 637.27 941.12 636.09 944.98 639.08 944.95 C 657.83 944.97 676.59 945.16 695.34 944.85 L 696.12 944.96 C 696.73 943.16 697.27 941.28 696.90 939.38 C 697.11 933.24 697.35 927.11 697.55 920.98 C 697.29 919.57 698.28 917.19 696.39 916.66 L 696.38 915.75 L 695.35 916.00 C 693.28 915.89 691.22 915.77 689.16 915.82 C 689.03 916.52 688.75 917.92 688.61 918.62 C 687.13 921.98 685.98 925.63 683.30 928.28 C 681.03 930.98 677.77 932.43 674.68 933.96 C 671.16 933.91 667.63 934.08 664.12 933.98 C 663.84 919.99 664.08 905.99 664.00 892.00 C 667.85 892.13 672.02 891.39 675.53 893.43 C 677.67 894.52 678.30 897.04 679.26 899.06 C 681.35 899.03 683.45 898.85 685.52 898.48 C 686.34 891.09 685.91 883.61 685.92 876.19 C 684.61 874.31 682.03 874.67 680.04 874.44 C 678.19 876.46 677.86 880.05 674.82 880.87 C 671.26 881.59 667.60 881.32 664.00 881.34 C 663.97 867.87 664.05 854.41 663.95 840.94 C 668.43 841.06 673.25 840.33 677.30 842.73 C 682.03 845.13 684.57 849.98 686.90 854.49 C 686.95 855.59 687.07 856.69 687.26 857.80 C 690.20 858.24 693.15 857.77 695.97 856.92 C 695.98 852.51 696.10 848.10 695.87 843.71 C 696.16 839.48 695.89 835.25 695.87 831.02 L 694.85 831.01 L 694.87 830.00 C 677.23 830.00 659.60 830.00 641.96 830.00 C 640.44 830.06 638.84 829.81 637.43 830.44 M 708.17 830.06 C 706.38 830.38 707.14 832.69 706.97 833.96 C 706.68 835.71 708.68 836.33 709.70 837.34 C 712.41 839.22 712.94 842.86 713.00 845.93 C 713.15 873.30 713.18 900.67 713.03 928.04 C 713.29 931.54 712.06 934.94 709.84 937.63 C 706.15 937.96 706.28 942.74 708.18 944.91 C 718.75 945.05 729.33 945.07 739.90 944.90 C 739.98 943.01 740.03 941.13 740.04 939.26 C 737.89 938.18 735.97 936.73 734.39 934.93 C 732.90 922.31 733.76 909.58 733.52 896.92 C 735.95 896.95 738.39 896.98 740.83 897.00 C 744.66 909.27 748.28 921.60 752.13 933.87 C 753.53 938.04 755.32 942.87 759.68 944.76 C 766.76 945.61 773.92 944.84 781.04 945.00 C 781.61 942.86 782.85 939.46 779.93 938.52 C 774.86 936.85 772.83 931.51 771.01 927.00 C 766.87 915.46 763.35 903.71 759.32 892.14 C 765.59 887.92 771.23 881.87 772.69 874.23 C 774.73 867.95 774.78 861.13 773.73 854.66 C 773.70 852.64 772.92 850.72 772.15 848.91 C 771.40 845.46 769.44 842.37 767.23 839.68 C 766.43 837.98 765.03 836.53 763.34 835.73 C 759.96 832.87 755.65 831.15 751.26 830.74 C 748.62 829.69 745.75 830.05 742.99 830.00 C 731.39 830.04 719.78 829.92 708.17 830.06 M 787.89 829.99 C 787.45 831.76 787.28 833.58 787.28 835.41 C 790.97 837.13 793.08 840.56 793.72 844.51 C 794.24 872.63 793.96 900.78 793.94 928.90 C 793.43 930.73 793.13 932.61 792.46 934.40 C 791.49 936.77 789.09 938.00 787.10 939.39 C 787.21 940.99 787.42 942.60 787.95 944.15 L 787.89 945.01 C 798.25 944.95 808.61 945.08 818.98 944.94 C 819.40 944.71 820.25 944.24 820.68 944.00 L 821.05 944.00 C 820.99 942.40 820.99 940.81 820.99 939.24 C 817.28 937.95 814.79 934.84 814.35 930.95 C 813.56 919.90 814.30 908.80 813.90 897.74 L 814.01 896.99 C 816.56 897.01 819.13 896.96 821.69 897.05 C 825.00 908.38 828.69 919.60 831.98 930.94 C 833.51 935.41 834.61 940.74 838.65 943.68 C 840.00 944.37 841.39 945.15 842.99 945.03 C 849.33 945.06 855.69 945.04 862.04 944.90 C 862.17 942.69 863.10 939.97 860.91 938.46 C 856.17 937.40 854.13 932.60 852.46 928.56 C 847.81 916.50 844.58 903.94 840.01 891.86 C 846.88 887.25 852.51 880.44 854.19 872.19 C 856.61 860.58 855.17 847.21 846.85 838.16 C 841.66 832.32 833.64 830.09 826.07 830.00 C 813.34 830.00 800.62 830.01 787.89 829.99 M 856.14 830.16 C 856.22 832.27 855.04 835.02 857.17 836.50 C 862.06 838.70 863.36 844.33 865.19 848.85 C 870.42 862.25 875.12 875.89 880.88 889.06 C 883.80 896.03 882.85 903.63 883.00 911.00 C 882.94 917.97 883.16 924.96 882.78 931.93 C 881.80 934.78 880.04 937.52 877.06 938.56 C 874.42 939.82 875.46 942.81 875.98 945.00 C 887.07 945.00 898.15 945.00 909.23 945.00 L 909.12 944.11 C 909.84 942.63 909.84 940.97 909.92 939.38 C 907.44 937.81 904.55 936.03 904.12 932.86 C 902.86 924.30 903.57 915.61 903.39 907.00 C 903.58 901.86 902.75 896.50 904.59 891.57 C 911.01 875.00 917.28 858.36 923.82 841.84 C 924.79 838.89 927.30 836.98 929.93 835.59 C 929.86 833.69 929.61 831.81 929.07 830.00 C 921.00 830.00 912.93 830.00 904.87 830.00 C 904.81 831.85 904.25 833.86 905.07 835.63 C 906.35 836.54 907.73 837.32 909.09 838.16 C 909.41 843.23 907.00 847.85 905.58 852.60 C 902.46 861.14 899.77 869.85 896.43 878.30 C 893.00 868.51 890.14 858.49 886.12 848.93 C 885.35 845.36 883.58 841.96 883.93 838.21 C 885.50 836.99 887.36 836.09 888.67 834.57 C 888.90 833.01 888.47 831.48 888.13 830.00 C 877.46 830.09 866.79 829.80 856.14 830.16 Z" />
<path fill="#f0e7d7" opacity="1.00" d=" M 565.02 295.97 C 578.22 295.13 591.44 294.82 604.68 295.00 C 613.40 311.96 621.08 329.63 625.57 348.22 C 625.92 349.47 626.36 350.69 626.91 351.89 C 633.57 341.09 637.35 328.38 646.06 318.92 C 648.05 319.11 650.49 318.33 652.04 319.99 C 653.74 321.49 654.52 323.73 655.19 325.83 C 658.00 335.31 657.17 345.32 656.96 355.07 C 655.55 370.00 652.99 386.07 642.71 397.71 C 638.59 402.49 631.69 403.30 626.04 401.00 C 622.10 421.34 620.03 442.13 613.98 462.01 C 603.14 483.01 586.77 500.79 568.18 515.22 C 558.93 522.23 548.92 528.90 537.39 531.32 C 522.53 534.54 506.74 535.48 492.04 531.03 C 477.07 526.16 466.10 513.60 458.97 500.02 C 452.10 486.70 446.06 472.47 445.02 457.34 C 458.16 456.87 471.56 455.15 483.63 449.62 C 490.63 446.39 497.32 442.30 502.85 436.88 C 516.76 446.72 532.47 456.17 550.05 456.25 C 559.00 456.47 568.21 455.33 576.28 451.23 C 581.13 448.76 584.69 444.27 586.49 439.17 C 577.01 441.41 567.45 436.63 560.25 430.76 C 551.37 424.04 544.78 414.61 535.00 409.04 C 531.56 406.80 527.50 405.94 523.55 405.13 C 526.19 402.35 530.27 398.53 527.71 394.41 C 525.14 390.69 520.14 390.66 516.10 391.07 C 510.57 392.08 505.40 394.39 500.29 396.65 C 496.99 394.10 493.52 391.77 489.91 389.69 C 491.60 375.16 493.10 360.62 494.00 346.02 C 493.99 335.65 495.13 325.30 495.01 314.92 C 495.35 310.36 496.08 305.05 500.01 302.10 C 503.36 299.42 507.76 298.89 511.90 298.84 C 519.56 297.78 527.31 298.07 534.99 297.07 C 545.02 297.22 554.98 295.65 565.02 295.97 M 497.49 469.71 C 493.41 470.14 489.11 470.48 485.45 472.50 C 483.23 473.33 483.29 476.68 485.23 477.78 C 489.15 481.12 493.84 483.54 498.70 485.19 C 506.76 487.79 516.01 484.89 521.30 478.31 C 522.47 476.95 524.84 473.93 522.05 473.05 C 514.45 469.54 505.73 468.99 497.49 469.71 Z" />
<path fill="#f0e7d7" opacity="1.00" d=" M 433.59 441.61 C 444.99 438.51 453.29 429.65 462.07 422.31 C 455.56 431.15 446.44 438.24 436.22 442.26 C 432.35 444.04 428.03 442.79 425.04 439.98 C 427.85 440.62 430.61 442.65 433.59 441.61 Z" />
<path fill="#f0e7d7" opacity="1.00" d=" M 577.09 523.05 C 588.96 509.40 600.38 495.35 612.04 481.54 C 610.39 499.42 608.00 517.29 603.81 534.78 C 603.07 537.51 601.79 540.06 600.60 542.62 C 592.06 560.16 580.48 576.05 567.78 590.78 C 555.19 605.48 540.95 618.62 527.25 632.24 C 507.84 651.21 489.82 671.61 473.63 693.38 C 467.50 682.90 461.52 672.31 454.72 662.23 C 444.90 647.58 434.93 632.97 426.79 617.29 C 417.71 600.35 410.37 582.47 405.01 564.01 C 411.36 573.36 417.03 583.20 423.66 592.38 C 436.30 610.49 450.57 627.36 464.50 644.47 C 467.85 648.46 470.79 652.85 474.83 656.23 C 478.30 649.84 480.66 642.94 483.21 636.16 C 488.39 621.82 493.43 607.25 495.05 592.01 C 495.16 588.37 497.33 585.13 500.55 583.49 C 512.50 576.67 524.39 569.70 535.44 561.47 C 550.72 550.29 564.47 537.14 577.09 523.05 Z" />
<path fill="#f0e7d7" opacity="1.00" d=" M 587.89 840.83 C 592.62 840.87 598.16 840.52 601.73 844.27 C 606.63 849.53 606.11 857.18 606.13 863.85 C 605.93 866.23 605.46 868.58 604.93 870.92 C 603.00 875.09 599.59 878.93 594.91 879.88 C 592.57 880.08 590.23 880.01 587.89 880.17 C 588.08 867.06 588.11 853.93 587.89 840.83 Z" />
<path fill="#f0e7d7" opacity="1.00" d=" M 733.56 840.63 C 739.17 840.44 745.28 841.44 749.07 846.00 C 753.02 853.51 753.51 862.23 752.69 870.52 C 751.75 874.95 750.44 879.68 746.73 882.63 C 742.88 885.23 738.24 885.92 733.70 886.04 C 733.32 870.91 733.56 855.76 733.56 840.63 Z" />
<path fill="#f0e7d7" opacity="1.00" d=" M 813.87 840.76 C 819.52 840.53 826.18 841.24 829.59 846.40 C 834.23 853.99 833.87 863.42 832.89 871.95 C 832.36 876.71 829.68 881.00 825.73 883.67 C 822.12 885.55 818.02 885.92 814.02 885.99 C 813.89 870.91 814.18 855.83 813.87 840.76 Z" />
<path fill="#f0e7d7" opacity="1.00" d=" M 588.00 891.46 C 592.03 891.28 596.09 891.73 599.94 893.01 C 606.25 896.97 608.27 904.99 608.00 912.01 C 608.04 919.22 606.42 927.73 599.75 931.77 C 596.28 934.22 591.94 934.04 587.90 934.10 C 588.26 919.89 587.94 905.67 588.00 891.46 Z" />
</g>
<g id="#141817ff">
<path fill="#141817" opacity="1.00" d=" M 547.05 61.99 C 560.80 57.58 576.93 56.43 589.69 64.28 C 600.85 70.79 607.90 82.13 613.51 93.40 C 621.98 110.98 627.23 129.86 632.35 148.62 C 638.29 171.20 643.74 193.92 648.35 216.81 C 671.72 217.87 695.00 221.17 717.90 226.01 C 735.02 229.81 752.24 234.15 768.00 242.04 C 775.92 246.27 784.33 252.09 786.66 261.31 C 788.60 269.63 784.26 277.76 778.75 283.72 C 765.83 297.61 749.05 307.15 731.94 314.91 C 711.22 324.32 689.37 330.76 667.87 338.08 C 668.09 358.90 663.05 379.83 653.13 398.16 C 649.28 405.61 642.48 411.60 634.19 413.45 C 633.94 419.68 633.07 425.88 631.87 431.99 C 644.30 434.14 656.77 436.19 669.08 439.03 C 709.20 447.99 747.74 463.42 783.60 483.44 C 786.69 485.18 789.77 486.96 792.75 488.91 C 763.47 513.73 734.51 539.21 709.39 568.34 C 748.16 580.95 786.98 593.59 824.56 609.50 C 837.42 614.94 850.37 620.38 862.32 627.68 C 873.02 634.32 880.78 644.71 886.18 655.92 C 891.56 666.80 895.50 678.31 898.99 689.91 C 862.53 709.90 824.61 727.58 785.84 742.78 C 710.35 772.25 629.90 788.53 549.10 792.75 C 532.08 793.34 515.03 792.95 498.00 793.00 C 433.99 790.52 370.18 779.98 308.89 761.11 C 267.28 748.28 226.78 732.02 187.26 713.80 C 172.11 706.70 157.12 699.24 142.62 690.88 C 148.21 676.33 155.87 662.10 167.80 651.76 C 175.26 645.14 184.28 640.71 193.01 636.07 C 215.45 624.37 238.53 613.98 261.55 603.49 C 273.72 598.16 285.74 592.47 298.11 587.62 C 281.21 572.01 262.97 557.94 244.69 544.00 C 252.17 534.14 261.63 525.99 270.86 517.81 C 300.63 492.49 331.83 468.13 367.35 451.34 C 371.89 449.21 376.45 447.10 381.05 445.08 C 377.97 434.06 376.15 422.72 374.43 411.43 C 374.01 409.09 373.98 406.71 373.88 404.35 C 368.20 404.75 362.21 403.01 358.38 398.62 C 352.67 391.98 350.45 383.28 347.93 375.10 C 343.40 360.16 340.63 344.68 339.98 329.09 C 322.75 327.34 305.63 324.53 288.61 321.33 C 268.89 317.27 249.16 312.81 230.27 305.75 C 222.50 302.70 214.71 299.20 208.34 293.70 C 205.12 290.85 202.63 286.46 203.89 282.06 C 205.28 276.72 210.14 273.29 214.59 270.54 C 227.54 263.15 242.12 259.41 256.33 255.29 C 287.31 247.16 318.67 240.58 349.95 233.78 C 355.89 208.89 361.83 183.99 368.08 159.16 C 373.04 139.83 377.78 120.39 384.59 101.60 C 388.79 90.64 393.69 79.53 402.05 71.05 C 407.56 65.37 415.13 61.79 422.99 61.02 C 436.59 60.16 449.81 64.28 462.57 68.49 C 475.05 72.73 487.65 78.08 501.07 77.70 C 517.69 77.00 531.57 66.76 547.05 61.99 M 565.02 295.97 C 554.98 295.65 545.02 297.22 534.99 297.07 C 527.31 298.07 519.56 297.78 511.90 298.84 C 507.76 298.89 503.36 299.42 500.01 302.10 C 496.08 305.05 495.35 310.36 495.01 314.92 C 495.13 325.30 493.99 335.65 494.00 346.02 C 493.10 360.62 491.60 375.16 489.91 389.69 C 493.52 391.77 496.99 394.10 500.29 396.65 C 505.40 394.39 510.57 392.08 516.10 391.07 C 520.14 390.66 525.14 390.69 527.71 394.41 C 530.27 398.53 526.19 402.35 523.55 405.13 C 527.50 405.94 531.56 406.80 535.00 409.04 C 544.78 414.61 551.37 424.04 560.25 430.76 C 567.45 436.63 577.01 441.41 586.49 439.17 C 584.69 444.27 581.13 448.76 576.28 451.23 C 568.21 455.33 559.00 456.47 550.05 456.25 C 532.47 456.17 516.76 446.72 502.85 436.88 C 497.32 442.30 490.63 446.39 483.63 449.62 C 471.56 455.15 458.16 456.87 445.02 457.34 C 446.06 472.47 452.10 486.70 458.97 500.02 C 466.10 513.60 477.07 526.16 492.04 531.03 C 506.74 535.48 522.53 534.54 537.39 531.32 C 548.92 528.90 558.93 522.23 568.18 515.22 C 586.77 500.79 603.14 483.01 613.98 462.01 C 620.03 442.13 622.10 421.34 626.04 401.00 C 631.69 403.30 638.59 402.49 642.71 397.71 C 652.99 386.07 655.55 370.00 656.96 355.07 C 657.17 345.32 658.00 335.31 655.19 325.83 C 654.52 323.73 653.74 321.49 652.04 319.99 C 650.49 318.33 648.05 319.11 646.06 318.92 C 637.35 328.38 633.57 341.09 626.91 351.89 C 626.36 350.69 625.92 349.47 625.57 348.22 C 621.08 329.63 613.40 311.96 604.68 295.00 C 591.44 294.82 578.22 295.13 565.02 295.97 M 433.59 441.61 C 430.61 442.65 427.85 440.62 425.04 439.98 C 428.03 442.79 432.35 444.04 436.22 442.26 C 446.44 438.24 455.56 431.15 462.07 422.31 C 453.29 429.65 444.99 438.51 433.59 441.61 M 577.09 523.05 C 564.47 537.14 550.72 550.29 535.44 561.47 C 524.39 569.70 512.50 576.67 500.55 583.49 C 497.33 585.13 495.16 588.37 495.05 592.01 C 493.43 607.25 488.39 621.82 483.21 636.16 C 480.66 642.94 478.30 649.84 474.83 656.23 C 470.79 652.85 467.85 648.46 464.50 644.47 C 450.57 627.36 436.30 610.49 423.66 592.38 C 417.03 583.20 411.36 573.36 405.01 564.01 C 410.37 582.47 417.71 600.35 426.79 617.29 C 434.93 632.97 444.90 647.58 454.72 662.23 C 461.52 672.31 467.50 682.90 473.63 693.38 C 489.82 671.61 507.84 651.21 527.25 632.24 C 540.95 618.62 555.19 605.48 567.78 590.78 C 580.48 576.05 592.06 560.16 600.60 542.62 C 601.79 540.06 603.07 537.51 603.81 534.78 C 608.00 517.29 610.39 499.42 612.04 481.54 C 600.38 495.35 588.96 509.40 577.09 523.05 Z" />
<path fill="#141817" opacity="1.00" d=" M 497.49 469.71 C 505.73 468.99 514.45 469.54 522.05 473.05 C 524.84 473.93 522.47 476.95 521.30 478.31 C 516.01 484.89 506.76 487.79 498.70 485.19 C 493.84 483.54 489.15 481.12 485.23 477.78 C 483.29 476.68 483.23 473.33 485.45 472.50 C 489.11 470.48 493.41 470.14 497.49 469.71 Z" />
<path fill="#141817" opacity="1.00" d=" M 139.27 830.16 C 149.81 829.86 160.37 829.99 170.92 830.07 C 173.77 829.69 172.64 833.33 173.24 835.06 C 172.46 833.68 171.73 832.27 170.72 831.06 C 165.87 830.14 160.90 830.78 156.00 830.66 C 151.10 830.77 146.12 830.14 141.27 831.07 C 139.91 831.96 139.54 833.71 138.84 835.10 C 139.00 833.44 139.13 831.79 139.27 830.16 Z" />
<path fill="#141817" opacity="1.00" d=" M 182.07 835.81 C 182.23 833.88 180.97 829.97 184.07 830.05 C 194.03 829.97 204.00 829.95 213.96 830.06 C 214.38 830.31 215.22 830.80 215.65 831.04 C 204.70 830.59 193.67 830.14 182.75 831.18 C 182.98 832.98 183.55 834.72 184.46 836.31 L 183.88 836.18 C 183.43 836.09 182.52 835.90 182.07 835.81 Z" />
<path fill="#141817" opacity="1.00" d=" M 229.91 830.00 C 238.59 830.03 247.26 829.94 255.94 830.05 C 259.03 829.90 258.57 834.94 256.98 836.52 C 256.95 834.78 256.97 833.03 256.66 831.32 C 248.10 829.89 239.32 830.79 230.68 830.87 C 230.91 832.73 231.15 834.60 231.41 836.48 C 230.90 836.19 229.87 835.61 229.36 835.33 C 229.42 833.53 229.58 831.75 229.91 830.00 Z" />
<path fill="#141817" opacity="1.00" d=" M 336.94 830.05 C 347.55 830.00 358.17 829.89 368.78 830.11 C 370.62 831.44 370.55 834.91 368.88 836.39 C 368.87 834.62 368.92 832.85 368.94 831.11 C 358.61 830.21 348.21 830.69 337.86 830.86 C 337.92 832.75 338.00 834.65 338.04 836.56 C 335.97 834.95 336.80 832.26 336.94 830.05 Z" />
<path fill="#141817" opacity="1.00" d=" M 637.43 830.44 C 638.84 829.81 640.44 830.06 641.96 830.00 C 659.60 830.00 677.23 830.00 694.87 830.00 L 694.85 831.01 C 694.78 834.41 694.72 837.81 694.55 841.21 C 694.25 837.75 694.19 834.28 694.19 830.82 C 677.45 830.40 660.71 830.83 643.97 830.60 C 641.92 830.84 639.16 830.30 637.76 832.13 C 637.34 834.64 640.14 835.85 641.41 837.63 C 644.21 840.25 644.65 844.29 644.72 847.92 C 644.66 874.30 644.65 900.69 644.72 927.07 C 644.74 931.16 643.90 935.68 640.38 938.25 C 638.41 939.53 637.69 941.58 637.79 943.86 C 648.83 944.84 659.93 944.03 671.00 944.32 C 679.11 944.56 687.28 943.68 695.34 944.85 C 676.59 945.16 657.83 944.97 639.08 944.95 C 636.09 944.98 637.27 941.12 636.98 939.25 C 639.05 937.96 641.61 936.85 642.48 934.38 C 643.78 930.40 643.63 926.13 643.76 922.00 C 643.75 899.33 643.78 876.67 643.73 854.00 C 643.65 849.78 643.68 845.50 642.72 841.38 C 642.01 838.54 639.50 836.80 637.05 835.56 C 637.07 833.85 636.81 832.07 637.43 830.44 Z" />
<path fill="#141817" opacity="1.00" d=" M 856.14 830.16 C 866.79 829.80 877.46 830.09 888.13 830.00 C 888.47 831.48 888.90 833.01 888.67 834.57 C 887.36 836.09 885.50 836.99 883.93 838.21 C 883.58 841.96 885.35 845.36 886.12 848.93 L 885.86 850.08 C 883.95 846.51 882.66 842.39 883.44 838.34 C 884.17 836.49 885.90 835.31 887.24 833.92 C 887.22 833.15 887.19 831.61 887.17 830.84 C 877.08 830.52 866.97 830.49 856.89 830.89 C 856.97 832.75 857.12 834.62 857.17 836.50 C 855.04 835.02 856.22 832.27 856.14 830.16 Z" />
<path fill="#141817" opacity="1.00" d=" M 748.92 831.37 C 749.51 831.21 750.68 830.90 751.26 830.74 C 755.65 831.15 759.96 832.87 763.34 835.73 C 758.69 833.80 753.95 831.96 748.92 831.37 Z" />
<path fill="#141817" opacity="1.00" d=" M 325.11 858.13 C 325.89 849.22 324.54 840.24 325.88 831.38 C 326.09 840.58 326.25 849.80 326.03 859.01 C 323.19 859.92 320.19 860.06 317.23 859.94 C 316.57 856.63 315.31 853.41 315.05 850.05 L 315.09 848.93 C 316.66 852.21 317.48 855.77 318.24 859.32 C 320.54 858.98 322.83 858.58 325.11 858.13 Z" />
<path fill="#141817" opacity="1.00" d=" M 235.44 838.73 C 237.91 841.10 237.58 844.83 237.74 847.97 C 237.59 871.00 237.68 894.03 237.71 917.06 C 237.72 920.87 236.88 924.68 235.07 928.06 L 235.14 927.03 C 235.89 922.72 237.07 918.44 236.98 914.03 C 237.02 892.68 237.00 871.33 236.99 849.98 C 237.04 846.03 236.31 842.13 234.93 838.45 L 235.44 838.73 Z" />
<path fill="#141817" opacity="1.00" d=" M 497.23 838.88 C 498.15 841.46 498.73 844.17 498.72 846.94 C 498.70 870.29 498.77 893.65 498.70 917.00 C 498.61 922.11 499.16 927.29 498.17 932.34 C 497.41 936.89 491.72 939.04 492.58 944.11 C 498.38 944.43 504.20 944.35 510.01 944.30 C 523.32 944.02 536.66 944.90 549.95 943.86 C 550.77 935.68 550.20 927.45 550.18 919.26 L 550.82 919.20 C 550.58 923.53 550.69 927.87 551.16 932.18 C 551.26 935.73 551.08 939.30 550.88 942.85 C 550.87 944.35 549.39 945.29 547.99 944.98 C 529.38 944.93 510.76 945.16 492.16 944.87 C 491.93 942.97 491.59 941.07 491.80 939.18 C 493.55 937.43 496.20 936.30 496.83 933.69 C 497.98 929.56 497.77 925.23 497.83 921.00 C 497.79 897.31 497.89 873.63 497.77 849.95 C 497.87 846.62 497.00 843.34 497.14 840.03 L 497.23 838.88 Z" />
<path fill="#141817" opacity="1.00" d=" M 165.26 846.92 C 165.19 844.51 165.55 842.02 167.14 840.11 C 166.57 844.05 166.14 848.01 166.18 852.00 C 166.18 876.00 166.12 900.01 166.20 924.02 C 166.11 927.36 166.87 930.66 166.83 934.01 L 166.77 935.09 C 164.61 929.64 165.39 923.71 165.32 918.00 C 165.29 894.31 165.39 870.61 165.26 846.92 Z" />
<path fill="#141817" opacity="1.00" d=" M 362.33 860.00 C 362.70 853.32 361.16 846.32 363.64 839.91 L 363.75 840.99 C 362.29 854.39 363.51 867.97 362.87 881.44 C 361.55 874.38 362.67 867.14 362.33 860.00 Z" />
<path fill="#141817" opacity="1.00" d=" M 587.22 843.92 C 587.17 842.48 587.46 841.07 587.80 839.69 L 587.89 840.83 C 588.11 853.93 588.08 867.06 587.89 880.17 C 587.46 878.83 587.14 877.44 587.21 876.05 C 587.26 865.34 587.40 854.63 587.22 843.92 Z" />
<path fill="#141817" opacity="1.00" d=" M 767.23 839.68 C 769.44 842.37 771.40 845.46 772.15 848.91 L 772.07 850.03 C 769.88 846.87 768.49 843.27 767.23 839.68 Z" />
<path fill="#141817" opacity="1.00" d=" M 813.36 851.00 C 813.43 847.21 812.86 843.37 813.79 839.66 L 813.87 840.76 C 814.18 855.83 813.89 870.91 814.02 885.99 C 818.02 885.92 822.12 885.55 825.73 883.67 C 823.12 887.88 817.42 886.39 813.28 886.74 C 813.42 874.83 813.31 862.91 813.36 851.00 Z" />
<path fill="#141817" opacity="1.00" d=" M 250.30 857.00 C 250.30 851.62 249.71 846.01 251.82 840.91 L 251.91 842.08 C 251.86 846.71 250.94 851.31 251.12 855.97 C 251.10 875.31 251.14 894.65 251.13 914.00 C 251.04 919.10 251.24 924.33 249.58 929.24 C 249.87 920.83 250.74 912.44 250.31 904.01 C 250.31 888.34 250.35 872.67 250.30 857.00 Z" />
<path fill="#141817" opacity="1.00" d=" M 732.15 841.25 L 732.84 841.22 C 732.56 856.18 732.80 871.15 732.70 886.12 L 733.70 886.04 C 738.24 885.92 742.88 885.23 746.73 882.63 C 743.67 887.56 737.22 886.79 732.25 886.73 C 732.24 871.57 732.43 856.40 732.15 841.25 Z" />
<path fill="#141817" opacity="1.00" d=" M 208.33 842.87 C 208.55 843.45 208.98 844.61 209.19 845.20 C 208.82 858.46 209.07 871.73 209.00 885.00 C 209.08 897.17 208.79 909.35 209.26 921.51 C 209.03 921.91 208.59 922.72 208.37 923.12 C 208.19 896.37 208.27 869.61 208.33 842.87 Z" />
<path fill="#141817" opacity="1.00" d=" M 793.72 844.51 C 793.95 844.11 794.41 843.32 794.65 842.92 C 794.62 872.68 794.90 902.47 794.49 932.22 C 794.35 931.39 794.08 929.73 793.94 928.90 C 793.96 900.78 794.24 872.63 793.72 844.51 Z" />
<path fill="#141817" opacity="1.00" d=" M 288.46 853.26 C 289.40 850.01 290.26 846.31 293.29 844.34 C 289.04 852.17 287.29 861.06 286.72 869.88 C 285.27 885.51 285.78 901.33 288.15 916.85 C 288.04 917.43 287.82 918.59 287.71 919.17 C 284.69 906.65 285.35 893.77 285.31 881.01 C 284.90 871.66 286.23 862.32 288.46 853.26 Z" />
<path fill="#141817" opacity="1.00" d=" M 695.07 856.12 C 695.19 851.97 695.40 847.83 695.87 843.71 C 696.10 848.10 695.98 852.51 695.97 856.92 C 693.15 857.77 690.20 858.24 687.26 857.80 C 687.07 856.69 686.95 855.59 686.90 854.49 C 686.91 854.15 686.94 853.45 686.96 853.11 C 687.66 854.37 688.32 855.69 689.16 856.91 C 691.15 856.83 693.10 856.43 695.07 856.12 Z" />
<path fill="#141817" opacity="1.00" d=" M 101.42 844.85 C 102.05 848.87 101.64 852.94 101.70 857.00 C 101.79 880.91 101.60 904.82 101.81 928.74 L 101.18 928.80 C 101.50 900.82 101.04 872.82 101.42 844.85 Z" />
<path fill="#141817" opacity="1.00" d=" M 748.70 845.14 C 749.77 846.04 750.97 846.97 751.37 848.42 C 754.48 855.94 753.83 864.23 753.50 872.17 C 753.30 871.76 752.90 870.93 752.69 870.52 C 753.51 862.23 753.02 853.51 749.07 846.00 L 748.70 845.14 Z" />
<path fill="#141817" opacity="1.00" d=" M 626.73 864.34 C 626.18 860.44 626.17 856.49 626.79 852.61 C 627.42 856.49 627.37 860.46 626.73 864.34 Z" />
<path fill="#141817" opacity="1.00" d=" M 772.69 874.23 C 773.05 867.71 773.28 861.17 773.73 854.66 C 774.78 861.13 774.73 867.95 772.69 874.23 Z" />
<path fill="#141817" opacity="1.00" d=" M 606.13 863.85 C 607.35 866.49 606.95 869.92 604.73 871.93 L 604.93 870.92 C 605.46 868.58 605.93 866.23 606.13 863.85 Z" />
<path fill="#141817" opacity="1.00" d=" M 881.08 887.91 C 882.64 890.67 883.68 893.75 883.69 896.97 C 883.82 905.30 883.54 913.65 883.72 921.99 C 883.72 925.31 884.09 928.78 882.78 931.93 C 883.16 924.96 882.94 917.97 883.00 911.00 C 882.85 903.63 883.80 896.03 880.88 889.06 L 881.08 887.91 Z" />
<path fill="#141817" opacity="1.00" d=" M 587.54 890.53 C 592.09 890.11 597.33 889.90 600.91 893.27 L 599.94 893.01 C 596.09 891.73 592.03 891.28 588.00 891.46 C 587.94 905.67 588.26 919.89 587.90 934.10 C 586.68 930.52 587.47 926.69 587.32 923.00 C 587.49 912.17 586.89 901.33 587.54 890.53 Z" />
<path fill="#141817" opacity="1.00" d=" M 518.22 891.21 C 523.14 891.41 531.14 889.69 532.72 896.11 C 529.43 891.27 523.21 891.88 518.11 892.01 L 518.22 891.21 Z" />
<path fill="#141817" opacity="1.00" d=" M 902.29 905.99 C 902.37 901.94 901.89 897.86 902.59 893.84 C 902.83 906.27 902.79 918.73 902.60 931.16 C 901.81 922.81 902.49 914.37 902.29 905.99 Z" />
<path fill="#141817" opacity="1.00" d=" M 732.16 897.23 L 732.84 897.27 C 732.64 908.43 732.65 919.59 732.81 930.76 L 732.20 930.75 C 732.34 919.58 732.37 908.40 732.16 897.23 Z" />
<path fill="#141817" opacity="1.00" d=" M 813.19 933.03 C 813.83 921.28 812.55 909.44 813.90 897.74 C 814.30 908.80 813.56 919.90 814.35 930.95 C 814.06 931.47 813.48 932.51 813.19 933.03 Z" />
<path fill="#141817" opacity="1.00" d=" M 362.43 906.11 C 362.43 903.24 364.42 901.07 366.29 899.16 C 365.27 902.11 362.78 904.64 363.05 907.95 C 363.04 915.28 362.87 922.61 363.41 929.93 C 363.11 930.45 362.50 931.51 362.20 932.03 C 362.55 923.39 362.00 914.74 362.43 906.11 Z" />
<path fill="#141817" opacity="1.00" d=" M 318.00 913.00 C 320.66 913.15 323.75 912.47 326.01 914.27 C 326.73 917.10 326.23 920.07 326.22 922.96 C 325.88 928.08 326.16 933.22 325.84 938.35 C 324.78 930.54 325.65 922.67 325.22 914.83 C 323.25 914.41 321.28 914.02 319.31 913.64 C 319.13 914.47 318.76 916.13 318.58 916.96 C 318.34 916.66 317.86 916.06 317.63 915.76 C 317.72 915.07 317.91 913.69 318.00 913.00 Z" />
<path fill="#141817" opacity="1.00" d=" M 543.50 916.34 C 544.95 914.97 547.36 916.24 549.19 916.12 C 547.53 916.37 545.89 916.71 544.25 917.06 C 543.25 920.19 542.29 923.54 539.74 925.81 C 541.18 922.73 542.31 919.52 543.50 916.34 Z" />
<path fill="#141817" opacity="1.00" d=" M 689.16 915.82 C 691.22 915.77 693.28 915.89 695.35 916.00 C 692.99 916.54 690.62 917.23 688.61 918.62 C 688.75 917.92 689.03 916.52 689.16 915.82 Z" />
<path fill="#141817" opacity="1.00" d=" M 696.39 916.66 C 698.28 917.19 697.29 919.57 697.55 920.98 C 697.35 927.11 697.11 933.24 696.90 939.38 C 695.76 931.85 696.51 924.23 696.39 916.66 Z" />
<path fill="#141817" opacity="1.00" d=" M 215.88 934.25 L 216.97 934.19 C 220.66 934.75 224.34 934.74 228.04 934.22 L 229.10 934.28 C 224.94 936.27 220.02 936.31 215.88 934.25 Z" />
<path fill="#141817" opacity="1.00" d=" M 664.12 933.98 C 667.63 934.08 671.16 933.91 674.68 933.96 C 675.03 934.13 675.73 934.46 676.08 934.63 C 672.13 934.81 668.18 934.81 664.24 934.74 L 664.12 933.98 Z" />
<path fill="#141817" opacity="1.00" d=" M 734.57 936.61 C 734.52 936.19 734.44 935.35 734.39 934.93 C 735.97 936.73 737.89 938.18 740.04 939.26 C 740.03 941.13 739.98 943.01 739.90 944.90 C 729.33 945.07 718.75 945.05 708.18 944.91 C 706.28 942.74 706.15 937.96 709.84 937.63 C 709.09 938.72 708.37 939.83 707.65 940.95 C 708.14 941.98 708.64 943.02 709.14 944.06 C 719.26 944.56 729.41 944.41 739.53 944.12 C 739.68 940.63 737.31 938.30 734.57 936.61 Z" />
<path fill="#141817" opacity="1.00" d=" M 337.13 939.37 C 338.64 938.16 340.24 937.09 341.74 935.88 C 340.09 938.46 337.68 940.73 337.55 944.01 C 342.69 944.39 347.85 944.36 353.01 944.33 C 358.62 944.24 364.39 945.03 369.82 943.16 C 369.05 941.26 368.26 939.37 367.26 937.60 C 370.66 938.27 370.44 941.91 369.56 944.54 C 368.17 945.25 366.53 944.87 365.04 945.00 C 355.73 944.92 346.40 945.15 337.09 944.88 C 337.05 943.05 336.41 941.11 337.13 939.37 Z" />
<path fill="#141817" opacity="1.00" d=" M 93.98 944.98 C 93.78 942.85 93.01 940.48 94.41 938.60 C 94.61 940.44 94.80 942.30 94.97 944.18 C 105.24 944.40 115.52 944.49 125.79 944.09 C 126.22 942.29 126.67 940.51 127.17 938.74 C 127.54 940.80 127.37 942.90 127.07 944.97 C 116.04 945.02 105.01 945.01 93.98 944.98 Z" />
<path fill="#141817" opacity="1.00" d=" M 141.99 944.99 C 138.25 945.86 138.17 940.42 140.00 938.54 C 140.06 940.30 140.08 942.07 140.10 943.85 C 147.37 944.77 154.70 944.15 162.00 944.39 C 165.20 944.37 168.51 944.66 171.60 943.61 C 171.91 941.91 172.02 940.20 172.20 938.50 C 173.52 940.36 172.83 942.68 172.78 944.79 C 162.52 945.24 152.25 944.89 141.99 944.99 Z" />
<path fill="#141817" opacity="1.00" d=" M 380.92 944.94 C 380.74 942.72 379.82 939.97 382.05 938.46 C 382.00 940.35 381.95 942.23 381.86 944.14 C 390.58 944.56 399.31 944.21 408.03 944.36 C 410.87 944.50 413.68 943.88 416.19 942.54 C 416.16 942.89 416.09 943.60 416.06 943.95 L 415.96 944.92 C 404.28 945.06 392.60 945.03 380.92 944.94 Z" />
<path fill="#141817" opacity="1.00" d=" M 561.93 938.88 C 562.76 941.03 562.87 944.53 566.03 944.23 C 578.44 944.72 590.91 943.64 603.31 944.74 C 589.97 945.26 576.57 944.95 563.21 944.91 C 561.28 943.52 562.27 940.86 561.93 938.88 Z" />
<path fill="#141817" opacity="1.00" d=" M 780.20 944.10 C 780.08 942.23 780.01 940.37 779.93 938.52 C 782.85 939.46 781.61 942.86 781.04 945.00 C 773.92 944.84 766.76 945.61 759.68 944.76 C 766.49 943.94 773.36 944.59 780.20 944.10 Z" />
<path fill="#141817" opacity="1.00" d=" M 861.13 944.07 C 861.03 942.19 860.94 940.33 860.91 938.46 C 863.10 939.97 862.17 942.69 862.04 944.90 C 855.69 945.04 849.33 945.06 842.99 945.03 C 841.39 945.15 840.00 944.37 838.65 943.68 C 846.10 944.57 853.64 944.50 861.13 944.07 Z" />
<path fill="#141817" opacity="1.00" d=" M 875.98 945.00 C 875.46 942.81 874.42 939.82 877.06 938.56 C 876.99 940.39 876.91 942.23 876.84 944.08 C 887.19 944.53 897.57 944.43 907.92 944.13 C 908.10 942.67 908.29 941.22 908.49 939.78 C 908.69 941.21 908.90 942.65 909.12 944.11 L 909.23 945.00 C 898.15 945.00 887.07 945.00 875.98 945.00 Z" />
<path fill="#141817" opacity="1.00" d=" M 280.64 940.34 C 286.70 943.35 293.06 946.08 299.94 946.29 C 307.21 947.16 314.20 944.69 321.26 943.38 C 313.83 947.17 305.15 947.75 296.96 947.04 C 291.07 946.39 285.05 944.46 280.64 940.34 Z" />
<path fill="#141817" opacity="1.00" d=" M 788.31 939.72 C 788.59 941.16 788.87 942.60 789.17 944.06 C 799.66 944.52 810.18 944.41 820.68 944.00 C 820.25 944.24 819.40 944.71 818.98 944.94 C 808.61 945.08 798.25 944.95 787.89 945.01 L 787.95 944.15 C 788.05 942.66 788.17 941.19 788.31 939.72 Z" />
</g>
<g id="#6b2827ff">
<path fill="#6b2827" opacity="1.00" d=" M 276.66 839.64 C 282.50 831.88 292.32 827.38 302.01 828.00 C 308.75 827.51 315.30 829.36 321.94 830.14 C 323.31 830.29 324.59 830.89 325.88 831.38 C 324.54 840.24 325.89 849.22 325.11 858.13 C 322.83 858.58 320.54 858.98 318.24 859.32 C 317.48 855.77 316.66 852.21 315.09 848.93 L 315.05 850.05 C 312.60 846.00 310.25 841.08 305.25 839.78 C 300.67 838.21 296.48 841.42 293.29 844.34 C 290.26 846.31 289.40 850.01 288.46 853.26 C 286.23 862.32 284.90 871.66 285.31 881.01 C 285.35 893.77 284.69 906.65 287.71 919.17 C 287.82 918.59 288.04 917.43 288.15 916.85 C 289.68 921.66 290.67 926.94 294.16 930.82 C 298.20 935.59 306.11 935.64 310.75 931.74 C 315.07 927.50 315.81 921.23 317.63 915.76 C 317.86 916.06 318.34 916.66 318.58 916.96 C 318.76 916.13 319.13 914.47 319.31 913.64 C 321.28 914.02 323.25 914.41 325.22 914.83 C 325.65 922.67 324.78 930.54 325.84 938.35 C 326.12 940.90 323.48 942.82 321.26 943.38 C 314.20 944.69 307.21 947.16 299.94 946.29 C 293.06 946.08 286.70 943.35 280.64 940.34 C 277.93 938.79 276.09 936.14 274.33 933.64 C 269.42 926.44 266.96 917.91 265.60 909.39 C 264.16 899.33 263.43 889.10 264.54 878.96 C 265.41 865.23 268.09 850.80 276.66 839.64 Z" />
<path fill="#6b2827" opacity="1.00" d=" M 93.80 830.00 C 104.89 830.00 115.98 830.00 127.08 830.00 C 127.49 832.00 128.66 835.07 126.10 836.14 C 123.12 837.60 121.05 840.55 121.04 843.93 C 120.73 855.98 120.85 868.04 120.85 880.09 C 129.23 880.04 137.62 880.03 146.00 880.14 C 146.00 869.07 146.00 858.00 146.00 846.93 C 146.03 844.42 145.53 841.90 144.51 839.61 C 143.43 837.28 140.70 836.62 138.84 835.10 C 139.54 833.71 139.91 831.96 141.27 831.07 C 146.12 830.14 151.10 830.77 156.00 830.66 C 160.90 830.78 165.87 830.14 170.72 831.06 C 171.73 832.27 172.46 833.68 173.24 835.06 C 170.97 836.43 168.60 837.81 167.14 840.11 C 165.55 842.02 165.19 844.51 165.26 846.92 C 165.39 870.61 165.29 894.31 165.32 918.00 C 165.39 923.71 164.61 929.64 166.77 935.09 L 166.83 934.01 C 168.37 935.76 169.83 937.83 172.20 938.50 C 172.02 940.20 171.91 941.91 171.60 943.61 C 168.51 944.66 165.20 944.37 162.00 944.39 C 154.70 944.15 147.37 944.77 140.10 943.85 C 140.08 942.07 140.06 940.30 140.00 938.54 C 144.05 937.35 146.04 933.02 145.99 929.06 C 146.02 916.73 145.99 904.40 146.00 892.07 C 137.61 892.32 129.22 892.13 120.83 892.13 C 120.82 905.08 120.65 918.04 121.11 930.99 C 121.27 934.63 123.80 937.56 127.17 938.74 C 126.67 940.51 126.22 942.29 125.79 944.09 C 115.52 944.49 105.24 944.40 94.97 944.18 C 94.80 942.30 94.61 940.44 94.41 938.60 C 100.00 936.51 100.35 930.01 100.35 924.95 C 100.59 904.30 100.39 883.65 100.43 863.00 C 100.38 856.05 100.73 849.06 99.77 842.16 C 99.29 839.38 97.15 837.46 94.88 836.05 C 92.66 834.83 93.77 831.98 93.80 830.00 M 101.42 844.85 C 101.04 872.82 101.50 900.82 101.18 928.80 L 101.81 928.74 C 101.60 904.82 101.79 880.91 101.70 857.00 C 101.64 852.94 102.05 848.87 101.42 844.85 Z" />
<path fill="#6b2827" opacity="1.00" d=" M 380.87 830.00 C 390.97 830.00 401.08 830.00 411.19 830.00 C 411.39 831.91 411.92 833.93 411.20 835.81 C 408.32 837.70 404.90 838.97 402.81 841.86 C 397.13 849.11 392.89 857.32 388.17 865.19 C 386.52 868.43 384.10 871.36 383.07 874.87 C 388.62 888.84 395.02 902.47 400.60 916.43 C 403.06 921.94 404.81 927.81 407.90 933.02 C 409.83 936.37 413.69 937.54 416.93 939.18 C 416.92 940.69 416.89 942.22 416.86 943.75 L 416.06 943.95 C 416.09 943.60 416.16 942.89 416.19 942.54 C 413.68 943.88 410.87 944.50 408.03 944.36 C 399.31 944.21 390.58 944.56 381.86 944.14 C 381.95 942.23 382.00 940.35 382.05 938.46 C 383.10 937.95 384.14 937.39 385.18 936.87 C 385.10 934.33 384.35 931.91 383.37 929.61 C 378.71 918.23 374.11 906.82 369.04 895.61 C 368.13 896.79 367.29 898.04 366.29 899.16 C 364.42 901.07 362.43 903.24 362.43 906.11 C 362.00 914.74 362.55 923.39 362.20 932.03 C 362.50 931.51 363.11 930.45 363.41 929.93 C 363.93 932.82 365.08 935.56 367.26 937.60 C 368.26 939.37 369.05 941.26 369.82 943.16 C 364.39 945.03 358.62 944.24 353.01 944.33 C 347.85 944.36 342.69 944.39 337.55 944.01 C 337.68 940.73 340.09 938.46 341.74 935.88 C 343.56 930.79 343.15 925.30 343.28 920.00 C 343.20 896.00 343.45 872.01 343.16 848.02 C 343.27 843.75 342.61 838.32 338.04 836.56 C 338.00 834.65 337.92 832.75 337.86 830.86 C 348.21 830.69 358.61 830.21 368.94 831.11 C 368.92 832.85 368.87 834.62 368.88 836.39 C 366.83 837.50 365.33 839.32 363.75 840.99 L 363.64 839.91 C 361.16 846.32 362.70 853.32 362.33 860.00 C 362.67 867.14 361.55 874.38 362.87 881.44 L 363.73 881.16 C 370.87 869.10 378.34 857.17 384.48 844.55 C 385.13 842.74 386.68 840.58 385.30 838.74 C 384.34 836.79 382.07 836.22 380.30 835.29 C 380.36 833.51 380.54 831.74 380.87 830.00 Z" />
<path fill="#6b2827" opacity="1.00" d=" M 424.20 830.05 C 434.73 829.98 445.28 829.94 455.82 830.07 C 457.63 830.28 456.83 832.71 457.04 833.95 C 457.30 835.78 454.98 836.07 453.90 836.96 C 450.66 838.62 449.83 842.63 449.96 845.96 C 449.61 875.30 449.90 904.65 449.82 934.00 C 455.19 934.03 461.16 934.04 465.70 930.72 C 471.04 926.39 472.18 919.19 473.99 912.96 C 476.72 913.15 480.34 912.45 482.34 914.69 C 483.12 920.05 482.43 925.56 482.69 930.99 C 482.51 935.65 483.50 940.47 482.06 945.01 C 462.77 944.96 443.48 945.06 424.19 944.96 C 422.12 943.79 423.29 941.13 423.00 939.25 C 424.99 937.92 427.45 936.77 428.29 934.35 C 429.50 931.05 429.20 927.43 429.42 923.99 C 429.61 900.33 429.45 876.67 429.47 853.00 C 429.34 849.13 429.51 845.16 428.57 841.38 C 427.93 838.61 425.38 837.16 423.31 835.57 C 422.90 833.87 422.25 831.02 424.20 830.05 Z" />
<path fill="#6b2827" opacity="1.00" d=" M 491.92 830.00 C 511.30 830.02 530.69 829.97 550.07 830.03 C 550.69 838.63 550.82 847.28 550.95 855.91 C 548.91 858.49 545.12 857.94 542.19 858.00 C 540.75 851.77 537.49 845.45 531.52 842.52 C 527.38 840.20 522.52 841.10 518.00 840.98 C 518.00 854.43 518.00 867.87 518.00 881.32 C 521.87 881.31 525.84 881.69 529.63 880.68 C 532.06 879.42 532.95 876.71 534.02 874.40 C 535.88 874.66 537.82 874.71 539.61 875.39 C 540.51 876.71 540.06 878.43 540.20 879.95 C 540.03 885.98 540.08 892.02 540.05 898.05 C 537.95 899.09 535.60 899.06 533.32 898.99 C 533.17 898.27 532.87 896.83 532.72 896.11 C 531.14 889.69 523.14 891.41 518.22 891.21 L 518.11 892.01 C 517.85 906.00 518.07 920.00 518.00 934.00 C 522.30 933.75 526.84 934.72 530.91 932.94 C 534.56 931.58 537.07 928.48 539.74 925.81 C 542.29 923.54 543.25 920.19 544.25 917.06 C 545.89 916.71 547.53 916.37 549.19 916.12 C 550.13 916.36 551.07 916.65 552.00 916.99 C 551.84 922.05 552.09 927.17 551.16 932.18 C 550.69 927.87 550.58 923.53 550.82 919.20 L 550.18 919.26 C 550.20 927.45 550.77 935.68 549.95 943.86 C 536.66 944.90 523.32 944.02 510.01 944.30 C 504.20 944.35 498.38 944.43 492.58 944.11 C 491.72 939.04 497.41 936.89 498.17 932.34 C 499.16 927.29 498.61 922.11 498.70 917.00 C 498.77 893.65 498.70 870.29 498.72 846.94 C 498.73 844.17 498.15 841.46 497.23 838.88 L 497.14 840.03 C 495.40 838.19 493.34 836.70 491.56 834.92 C 491.48 833.26 491.73 831.62 491.92 830.00 Z" />
<path fill="#6b2827" opacity="1.00" d=" M 562.06 830.07 C 574.73 829.92 587.41 830.02 600.08 830.02 C 606.35 830.44 612.80 832.17 617.73 836.24 C 622.70 840.25 625.92 846.33 626.79 852.61 C 626.17 856.49 626.18 860.44 626.73 864.34 C 625.57 873.98 617.79 881.62 608.92 884.77 C 614.97 886.90 620.93 889.97 624.64 895.42 C 632.48 906.62 631.48 922.66 623.66 933.61 C 619.13 940.32 611.31 944.30 603.31 944.74 C 590.91 943.64 578.44 944.72 566.03 944.23 C 562.87 944.53 562.76 941.03 561.93 938.88 C 565.65 937.01 568.04 933.25 567.97 929.06 C 568.03 901.02 568.01 872.98 567.98 844.94 C 568.00 840.96 565.83 837.10 562.00 835.67 C 561.99 833.80 561.98 831.93 562.06 830.07 M 587.22 843.92 C 587.40 854.63 587.26 865.34 587.21 876.05 C 587.14 877.44 587.46 878.83 587.89 880.17 C 590.23 880.01 592.57 880.08 594.91 879.88 C 599.59 878.93 603.00 875.09 604.93 870.92 L 604.73 871.93 C 606.95 869.92 607.35 866.49 606.13 863.85 C 606.11 857.18 606.63 849.53 601.73 844.27 C 598.16 840.52 592.62 840.87 587.89 840.83 L 587.80 839.69 C 587.46 841.07 587.17 842.48 587.22 843.92 M 587.54 890.53 C 586.89 901.33 587.49 912.17 587.32 923.00 C 587.47 926.69 586.68 930.52 587.90 934.10 C 591.94 934.04 596.28 934.22 599.75 931.77 C 606.42 927.73 608.04 919.22 608.00 912.01 C 608.27 904.99 606.25 896.97 599.94 893.01 L 600.91 893.27 C 597.33 889.90 592.09 890.11 587.54 890.53 Z" />
<path fill="#6b2827" opacity="1.00" d=" M 708.17 830.06 C 719.78 829.92 731.39 830.04 742.99 830.00 C 745.75 830.05 748.62 829.69 751.26 830.74 C 750.68 830.90 749.51 831.21 748.92 831.37 C 753.95 831.96 758.69 833.80 763.34 835.73 C 765.03 836.53 766.43 837.98 767.23 839.68 C 768.49 843.27 769.88 846.87 772.07 850.03 L 772.15 848.91 C 772.92 850.72 773.70 852.64 773.73 854.66 C 773.28 861.17 773.05 867.71 772.69 874.23 C 771.23 881.87 765.59 887.92 759.32 892.14 C 763.35 903.71 766.87 915.46 771.01 927.00 C 772.83 931.51 774.86 936.85 779.93 938.52 C 780.01 940.37 780.08 942.23 780.20 944.10 C 773.36 944.59 766.49 943.94 759.68 944.76 C 755.32 942.87 753.53 938.04 752.13 933.87 C 748.28 921.60 744.66 909.27 740.83 897.00 C 738.39 896.98 735.95 896.95 733.52 896.92 C 733.76 909.58 732.90 922.31 734.39 934.93 C 734.44 935.35 734.52 936.19 734.57 936.61 C 737.31 938.30 739.68 940.63 739.53 944.12 C 729.41 944.41 719.26 944.56 709.14 944.06 C 708.64 943.02 708.14 941.98 707.65 940.95 C 708.37 939.83 709.09 938.72 709.84 937.63 C 712.06 934.94 713.29 931.54 713.03 928.04 C 713.18 900.67 713.15 873.30 713.00 845.93 C 712.94 842.86 712.41 839.22 709.70 837.34 C 708.68 836.33 706.68 835.71 706.97 833.96 C 707.14 832.69 706.38 830.38 708.17 830.06 M 732.15 841.25 C 732.43 856.40 732.24 871.57 732.25 886.73 C 737.22 886.79 743.67 887.56 746.73 882.63 C 750.44 879.68 751.75 874.95 752.69 870.52 C 752.90 870.93 753.30 871.76 753.50 872.17 C 753.83 864.23 754.48 855.94 751.37 848.42 C 750.97 846.97 749.77 846.04 748.70 845.14 L 749.07 846.00 C 745.28 841.44 739.17 840.44 733.56 840.63 C 733.56 855.76 733.32 870.91 733.70 886.04 L 732.70 886.12 C 732.80 871.15 732.56 856.18 732.84 841.22 L 732.15 841.25 M 732.16 897.23 C 732.37 908.40 732.34 919.58 732.20 930.75 L 732.81 930.76 C 732.65 919.59 732.64 908.43 732.84 897.27 L 732.16 897.23 Z" />
<path fill="#6b2827" opacity="1.00" d=" M 787.89 829.99 C 800.62 830.01 813.34 830.00 826.07 830.00 C 833.64 830.09 841.66 832.32 846.85 838.16 C 855.17 847.21 856.61 860.58 854.19 872.19 C 852.51 880.44 846.88 887.25 840.01 891.86 C 844.58 903.94 847.81 916.50 852.46 928.56 C 854.13 932.60 856.17 937.40 860.91 938.46 C 860.94 940.33 861.03 942.19 861.13 944.07 C 853.64 944.50 846.10 944.57 838.65 943.68 C 834.61 940.74 833.51 935.41 831.98 930.94 C 828.69 919.60 825.00 908.38 821.69 897.05 C 819.13 896.96 816.56 897.01 814.01 896.99 L 813.90 897.74 C 812.55 909.44 813.83 921.28 813.19 933.03 C 813.48 932.51 814.06 931.47 814.35 930.95 C 814.79 934.84 817.28 937.95 820.99 939.24 C 820.99 940.81 820.99 942.40 821.05 944.00 L 820.68 944.00 C 810.18 944.41 799.66 944.52 789.17 944.06 C 788.87 942.60 788.59 941.16 788.31 939.72 C 788.17 941.19 788.05 942.66 787.95 944.15 C 787.42 942.60 787.21 940.99 787.10 939.39 C 789.09 938.00 791.49 936.77 792.46 934.40 C 793.13 932.61 793.43 930.73 793.94 928.90 C 794.08 929.73 794.35 931.39 794.49 932.22 C 794.90 902.47 794.62 872.68 794.65 842.92 C 794.41 843.32 793.95 844.11 793.72 844.51 C 793.08 840.56 790.97 837.13 787.28 835.41 C 787.28 833.58 787.45 831.76 787.89 829.99 M 813.36 851.00 C 813.31 862.91 813.42 874.83 813.28 886.74 C 817.42 886.39 823.12 887.88 825.73 883.67 C 829.68 881.00 832.36 876.71 832.89 871.95 C 833.87 863.42 834.23 853.99 829.59 846.40 C 826.18 841.24 819.52 840.53 813.87 840.76 L 813.79 839.66 C 812.86 843.37 813.43 847.21 813.36 851.00 Z" />
<path fill="#6b2827" opacity="1.00" d=" M 904.87 830.00 C 912.93 830.00 921.00 830.00 929.07 830.00 C 929.61 831.81 929.86 833.69 929.93 835.59 C 927.30 836.98 924.79 838.89 923.82 841.84 C 917.28 858.36 911.01 875.00 904.59 891.57 C 902.75 896.50 903.58 901.86 903.39 907.00 C 903.57 915.61 902.86 924.30 904.12 932.86 C 904.55 936.03 907.44 937.81 909.92 939.38 C 909.84 940.97 909.84 942.63 909.12 944.11 C 908.90 942.65 908.69 941.21 908.49 939.78 C 908.29 941.22 908.10 942.67 907.92 944.13 C 897.57 944.43 887.19 944.53 876.84 944.08 C 876.91 942.23 876.99 940.39 877.06 938.56 C 880.04 937.52 881.80 934.78 882.78 931.93 C 884.09 928.78 883.72 925.31 883.72 921.99 C 883.54 913.65 883.82 905.30 883.69 896.97 C 883.68 893.75 882.64 890.67 881.08 887.91 L 880.88 889.06 C 875.12 875.89 870.42 862.25 865.19 848.85 C 863.36 844.33 862.06 838.70 857.17 836.50 C 857.12 834.62 856.97 832.75 856.89 830.89 C 866.97 830.49 877.08 830.52 887.17 830.84 C 887.19 831.61 887.22 833.15 887.24 833.92 C 885.90 835.31 884.17 836.49 883.44 838.34 C 882.66 842.39 883.95 846.51 885.86 850.08 L 886.12 848.93 C 890.14 858.49 893.00 868.51 896.43 878.30 C 899.77 869.85 902.46 861.14 905.58 852.60 C 907.00 847.85 909.41 843.23 909.09 838.16 C 907.73 837.32 906.35 836.54 905.07 835.63 C 904.25 833.86 904.81 831.85 904.87 830.00 M 902.29 905.99 C 902.49 914.37 901.81 922.81 902.60 931.16 C 902.79 918.73 902.83 906.27 902.59 893.84 C 901.89 897.86 902.37 901.94 902.29 905.99 Z" />
<path fill="#6b2827" opacity="1.00" d=" M 182.75 831.18 C 193.67 830.14 204.70 830.59 215.65 831.04 L 216.15 831.07 C 215.90 832.51 216.24 834.14 215.48 835.48 C 214.10 836.76 212.46 837.75 211.21 839.18 C 210.10 841.00 209.83 843.18 209.19 845.20 C 208.98 844.61 208.55 843.45 208.33 842.87 C 208.27 869.61 208.19 896.37 208.37 923.12 C 208.59 922.72 209.03 921.91 209.26 921.51 C 210.19 924.23 210.72 927.16 212.30 929.62 C 213.61 931.37 215.38 932.69 216.97 934.19 L 215.88 934.25 C 220.02 936.31 224.94 936.27 229.10 934.28 L 228.04 934.22 C 230.74 932.16 233.14 929.77 235.14 927.03 L 235.07 928.06 C 236.88 924.68 237.72 920.87 237.71 917.06 C 237.68 894.03 237.59 871.00 237.74 847.97 C 237.58 844.83 237.91 841.10 235.44 838.73 L 234.93 838.45 C 233.74 837.81 232.57 837.14 231.41 836.48 C 231.15 834.60 230.91 832.73 230.68 830.87 C 239.32 830.79 248.10 829.89 256.66 831.32 C 256.97 833.03 256.95 834.78 256.98 836.52 C 254.70 837.76 253.40 840.06 251.91 842.08 L 251.82 840.91 C 249.71 846.01 250.30 851.62 250.30 857.00 C 250.35 872.67 250.31 888.34 250.31 904.01 C 250.74 912.44 249.87 920.83 249.58 929.24 C 248.33 936.15 243.02 941.97 236.62 944.65 C 229.80 947.57 222.23 947.36 214.96 947.08 C 206.85 946.70 198.21 943.42 193.74 936.28 C 189.20 929.10 188.89 920.23 189.00 912.00 C 189.00 890.31 189.01 868.62 189.00 846.93 C 189.00 842.85 187.96 838.06 183.88 836.18 L 184.46 836.31 C 183.55 834.72 182.98 832.98 182.75 831.18 Z" />
<path fill="#6b2827" opacity="1.00" d=" M 637.76 832.13 C 639.16 830.30 641.92 830.84 643.97 830.60 C 660.71 830.83 677.45 830.40 694.19 830.82 C 694.19 834.28 694.25 837.75 694.55 841.21 C 694.72 837.81 694.78 834.41 694.85 831.01 L 695.87 831.02 C 695.89 835.25 696.16 839.48 695.87 843.71 C 695.40 847.83 695.19 851.97 695.07 856.12 C 693.10 856.43 691.15 856.83 689.16 856.91 C 688.32 855.69 687.66 854.37 686.96 853.11 C 686.94 853.45 686.91 854.15 686.90 854.49 C 684.57 849.98 682.03 845.13 677.30 842.73 C 673.25 840.33 668.43 841.06 663.95 840.94 C 664.05 854.41 663.97 867.87 664.00 881.34 C 667.60 881.32 671.26 881.59 674.82 880.87 C 677.86 880.05 678.19 876.46 680.04 874.44 C 682.03 874.67 684.61 874.31 685.92 876.19 C 685.91 883.61 686.34 891.09 685.52 898.48 C 683.45 898.85 681.35 899.03 679.26 899.06 C 678.30 897.04 677.67 894.52 675.53 893.43 C 672.02 891.39 667.85 892.13 664.00 892.00 C 664.08 905.99 663.84 919.99 664.12 933.98 L 664.24 934.74 C 668.18 934.81 672.13 934.81 676.08 934.63 C 675.73 934.46 675.03 934.13 674.68 933.96 C 677.77 932.43 681.03 930.98 683.30 928.28 C 685.98 925.63 687.13 921.98 688.61 918.62 C 690.62 917.23 692.99 916.54 695.35 916.00 L 696.38 915.75 L 696.39 916.66 C 696.51 924.23 695.76 931.85 696.90 939.38 C 697.27 941.28 696.73 943.16 696.12 944.96 L 695.34 944.85 C 687.28 943.68 679.11 944.56 671.00 944.32 C 659.93 944.03 648.83 944.84 637.79 943.86 C 637.69 941.58 638.41 939.53 640.38 938.25 C 643.90 935.68 644.74 931.16 644.72 927.07 C 644.65 900.69 644.66 874.30 644.72 847.92 C 644.65 844.29 644.21 840.25 641.41 837.63 C 640.14 835.85 637.34 834.64 637.76 832.13 Z" />
</g>
</svg>
