<?xml version="1.0" encoding="UTF-8" standalone="no"?>
<!DOCTYPE svg PUBLIC "-//W3C//DTD SVG 1.1//EN" "http://www.w3.org/Graphics/SVG/1.1/DTD/svg11.dtd">
<svg width="100%" height="100%" viewBox="0 0 757 735" version="1.1" xmlns="http://www.w3.org/2000/svg" xmlns:xlink="http://www.w3.org/1999/xlink" xml:space="preserve" xmlns:serif="http://www.serif.com/" style="fill-rule:evenodd;clip-rule:evenodd;stroke-linejoin:round;stroke-miterlimit:2;">
    <g transform="matrix(1,0,0,1,-142.62,-58.5275)">
        <path d="M547.05,61.99C560.8,57.58 576.93,56.43 589.69,64.28C600.85,70.79 607.9,82.13 613.51,93.4C621.98,110.98 627.23,129.86 632.35,148.62C638.29,171.2 643.74,193.92 648.35,216.81C671.72,217.87 695,221.17 717.9,226.01C735.02,229.81 752.24,234.15 768,242.04C775.92,246.27 784.33,252.09 786.66,261.31C788.6,269.63 784.26,277.76 778.75,283.72C765.83,297.61 749.05,307.15 731.94,314.91C711.22,324.32 689.37,330.76 667.87,338.08C668.09,358.9 663.05,379.83 653.13,398.16C649.28,405.61 642.48,411.6 634.19,413.45C633.94,419.68 633.07,425.88 631.87,431.99C644.3,434.14 656.77,436.19 669.08,439.03C709.2,447.99 747.74,463.42 783.6,483.44C786.69,485.18 789.77,486.96 792.75,488.91C763.47,513.73 734.51,539.21 709.39,568.34C748.16,580.95 786.98,593.59 824.56,609.5C837.42,614.94 850.37,620.38 862.32,627.68C873.02,634.32 880.78,644.71 886.18,655.92C891.56,666.8 895.5,678.31 898.99,689.91C862.53,709.9 824.61,727.58 785.84,742.78C710.35,772.25 629.9,788.53 549.1,792.75C532.08,793.34 515.03,792.95 498,793C433.99,790.52 370.18,779.98 308.89,761.11C267.28,748.28 226.78,732.02 187.26,713.8C172.11,706.7 157.12,699.24 142.62,690.88C148.21,676.33 155.87,662.1 167.8,651.76C175.26,645.14 184.28,640.71 193.01,636.07C215.45,624.37 238.53,613.98 261.55,603.49C273.72,598.16 285.74,592.47 298.11,587.62C281.21,572.01 262.97,557.94 244.69,544C252.17,534.14 261.63,525.99 270.86,517.81C300.63,492.49 331.83,468.13 367.35,451.34C371.89,449.21 376.45,447.1 381.05,445.08C377.97,434.06 376.15,422.72 374.43,411.43C374.01,409.09 373.98,406.71 373.88,404.35C368.2,404.75 362.21,403.01 358.38,398.62C352.67,391.98 350.45,383.28 347.93,375.1C343.4,360.16 340.63,344.68 339.98,329.09C322.75,327.34 305.63,324.53 288.61,321.33C268.89,317.27 249.16,312.81 230.27,305.75C222.5,302.7 214.71,299.2 208.34,293.7C205.12,290.85 202.63,286.46 203.89,282.06C205.28,276.72 210.14,273.29 214.59,270.54C227.54,263.15 242.12,259.41 256.33,255.29C287.31,247.16 318.67,240.58 349.95,233.78C355.89,208.89 361.83,183.99 368.08,159.16C373.04,139.83 377.78,120.39 384.59,101.6C388.79,90.64 393.69,79.53 402.05,71.05C407.56,65.37 415.13,61.79 422.99,61.02C436.59,60.16 449.81,64.28 462.57,68.49C475.05,72.73 487.65,78.08 501.07,77.7C517.69,77 531.57,66.76 547.05,61.99M565.02,295.97C554.98,295.65 545.02,297.22 534.99,297.07C527.31,298.07 519.56,297.78 511.9,298.84C507.76,298.89 503.36,299.42 500.01,302.1C496.08,305.05 495.35,310.36 495.01,314.92C495.13,325.3 493.99,335.65 494,346.02C493.1,360.62 491.6,375.16 489.91,389.69C493.52,391.77 496.99,394.1 500.29,396.65C505.4,394.39 510.57,392.08 516.1,391.07C520.14,390.66 525.14,390.69 527.71,394.41C530.27,398.53 526.19,402.35 523.55,405.13C527.5,405.94 531.56,406.8 535,409.04C544.78,414.61 551.37,424.04 560.25,430.76C567.45,436.63 577.01,441.41 586.49,439.17C584.69,444.27 581.13,448.76 576.28,451.23C568.21,455.33 559,456.47 550.05,456.25C532.47,456.17 516.76,446.72 502.85,436.88C497.32,442.3 490.63,446.39 483.63,449.62C471.56,455.15 458.16,456.87 445.02,457.34C446.06,472.47 452.1,486.7 458.97,500.02C466.1,513.6 477.07,526.16 492.04,531.03C506.74,535.48 522.53,534.54 537.39,531.32C548.92,528.9 558.93,522.23 568.18,515.22C586.77,500.79 603.14,483.01 613.98,462.01C620.03,442.13 622.1,421.34 626.04,401C631.69,403.3 638.59,402.49 642.71,397.71C652.99,386.07 655.55,370 656.96,355.07C657.17,345.32 658,335.31 655.19,325.83C654.52,323.73 653.74,321.49 652.04,319.99C650.49,318.33 648.05,319.11 646.06,318.92C637.35,328.38 633.57,341.09 626.91,351.89C626.36,350.69 625.92,349.47 625.57,348.22C621.08,329.63 613.4,311.96 604.68,295C591.44,294.82 578.22,295.13 565.02,295.97M433.59,441.61C430.61,442.65 427.85,440.62 425.04,439.98C428.03,442.79 432.35,444.04 436.22,442.26C446.44,438.24 455.56,431.15 462.07,422.31C453.29,429.65 444.99,438.51 433.59,441.61M577.09,523.05C564.47,537.14 550.72,550.29 535.44,561.47C524.39,569.7 512.5,576.67 500.55,583.49C497.33,585.13 495.16,588.37 495.05,592.01C493.43,607.25 488.39,621.82 483.21,636.16C480.66,642.94 478.3,649.84 474.83,656.23C470.79,652.85 467.85,648.46 464.5,644.47C450.57,627.36 436.3,610.49 423.66,592.38C417.03,583.2 411.36,573.36 405.01,564.01C410.37,582.47 417.71,600.35 426.79,617.29C434.93,632.97 444.9,647.58 454.72,662.23C461.52,672.31 467.5,682.9 473.63,693.38C489.82,671.61 507.84,651.21 527.25,632.24C540.95,618.62 555.19,605.48 567.78,590.78C580.48,576.05 592.06,560.16 600.6,542.62C601.79,540.06 603.07,537.51 603.81,534.78C608,517.29 610.39,499.42 612.04,481.54C600.38,495.35 588.96,509.4 577.09,523.05Z" style="fill:rgb(66,66,66);fill-rule:nonzero;"/>
    </g>
    <g transform="matrix(1,0,0,1,-142.62,-58.5275)">
        <path d="M497.49,469.71C505.73,468.99 514.45,469.54 522.05,473.05C524.84,473.93 522.47,476.95 521.3,478.31C516.01,484.89 506.76,487.79 498.7,485.19C493.84,483.54 489.15,481.12 485.23,477.78C483.29,476.68 483.23,473.33 485.45,472.5C489.11,470.48 493.41,470.14 497.49,469.71Z" style="fill:rgb(66,66,66);fill-rule:nonzero;"/>
    </g>
</svg>
